<svg width="137" height="36" viewBox="0 0 137 36" fill="none" xmlns="http://www.w3.org/2000/svg">
<path d="M19.5788 15.2484C19.5788 12.2158 18.4615 8.4917 10.5699 8.4917C3.3876 8.4917 1.79154 12.1094 1.64967 14.3617H7.39549C7.62603 13.3154 8.17579 12.3932 10.6585 12.3932C13.3187 12.3932 13.9571 13.5814 13.9571 15.0533V15.6208C13.3364 15.6208 11.5807 15.6208 10.1443 15.6208C4.80632 15.6208 0.621094 16.9508 0.621094 21.7213C0.621094 24.6297 2.62504 27.6622 7.59056 27.6622C11.0132 27.6622 13.1058 26.6868 14.0812 25.1262C14.1167 25.6405 14.1521 26.74 14.294 27.1834H19.7206C19.6852 26.7932 19.5788 24.4523 19.5788 22.0937V15.2484ZM13.9571 19.54C13.9571 22.1292 12.3787 23.5656 9.22209 23.5656C7.12948 23.5656 6.18958 22.608 6.18958 21.4198C6.18958 19.9833 7.34229 19.2208 10.2684 19.2208C12.3078 19.2208 13.5492 19.2208 13.9748 19.2562V19.54H13.9571Z" fill="#46525B"/>
<path d="M28.4812 0.972656H22.7354V27.1658H28.4812V0.972656Z" fill="#46525B"/>
<path d="M57.7241 8.4209H51.6591L59.1251 18.015L54.9576 23.3707C52.8118 23.3707 40.7882 23.3884 40.6285 23.3884C37.9152 23.3884 36.3192 21.6682 36.1596 19.4692H50.4177C50.4532 18.884 50.4532 18.5648 50.4532 18.1037C50.4532 13.3687 47.598 8.49183 40.5221 8.49183C33.8896 8.49183 30.4492 12.9785 30.4492 18.1037C30.4492 22.7323 33.1271 27.6623 40.5753 27.6623C40.7172 27.6623 57.6709 27.68 57.6709 27.68L65.1902 18.015L57.7241 8.4209ZM40.5221 12.5175C43.7675 12.5175 44.5123 14.5569 44.6187 15.9579H36.2305C36.4078 14.1667 37.5074 12.5175 40.5221 12.5175Z" fill="#46525B"/>
<path d="M114.313 15.6566C114.313 12.624 113.196 8.8999 105.304 8.8999C98.1221 8.8999 96.5261 12.5176 96.3842 14.7699H102.13C102.361 13.7236 102.91 12.8014 105.393 12.8014C108.053 12.8014 108.692 13.9896 108.692 15.4615V16.0467C108.071 16.0467 106.315 16.0467 104.879 16.0467C99.5231 16.0467 95.3379 17.3768 95.3379 22.1472C95.3379 25.0556 97.3418 28.0881 102.307 28.0881C105.73 28.0881 107.823 27.1127 108.798 25.5521C108.833 26.0664 108.869 27.1659 109.011 27.6093H114.437C114.402 27.2191 114.296 24.8783 114.296 22.5196V15.6566H114.313ZM108.692 19.9482C108.692 22.5374 107.113 23.9738 103.957 23.9738C101.864 23.9738 100.924 23.0162 100.924 21.828C100.924 20.3915 102.077 19.629 105.003 19.629C107.042 19.629 108.284 19.629 108.709 19.6645V19.9482H108.692Z" fill="#46525B"/>
<path d="M130.239 9.39648C127.791 16.3482 126.373 21.1541 125.876 22.9807H125.787C125.433 21.6684 124.085 17.2881 120.964 9.39648H114.65L122.737 28.2655C121.779 30.1808 121.212 30.9611 118.729 30.9611C118.162 30.9611 117.754 30.9611 116.903 30.8724V35.501C117.559 35.6428 118.907 35.7138 119.722 35.7138C125.929 35.7138 126.887 33.0714 130.026 24.967L136.109 9.39648H130.239Z" fill="#46525B"/>
<path d="M84.4852 8.13721L67.7975 8.15494L61.0586 16.8269L71.433 30.2693L71.7345 22.5018L67.1236 16.8269L69.9079 13.2091H84.4852C86.8439 13.2091 88.7591 15.1244 88.7591 17.483V18.2101C88.4222 20.9057 86.099 22.9274 83.368 22.9274C80.7079 22.9274 79.1828 21.4023 78.8813 18.8663C75.7424 18.8663 73.2064 21.4023 73.2064 24.5412V34.6141H78.9522V25.1796C79.8212 26.2791 81.5591 27.4318 84.5562 27.4318C89.0783 27.4318 93.4054 24.1333 93.7956 18.3165H93.8488V17.4476C93.8488 12.3224 89.6636 8.13721 84.4852 8.13721Z" fill="#46525B"/>
</svg>
