<svg width="155" height="64" viewBox="0 0 155 64" fill="none" xmlns="http://www.w3.org/2000/svg">
<path d="M86.1798 26.9434C85.9373 27.4283 83.8359 30.9037 78.3803 30.9037C72.5611 30.9037 69.1665 26.4585 69.1665 20.9221C69.1665 15.4261 72.5611 10.9404 78.3803 10.9404C83.9167 10.9404 85.9777 14.5775 86.2202 14.9412L85.5736 15.5878C79.5927 8.3945 72.4398 13.1631 72.4398 20.8817C72.4398 27.9941 79.5523 33.4093 85.5332 26.2564L86.1798 26.9434Z" fill="#46525B"/>
<path d="M101.535 21.6502L101.495 30.4599H98.8682V21.8118C98.8682 19.3467 97.4133 18.2152 96.2414 18.2152C94.7058 18.2152 93.6146 19.0638 92.9276 19.8721V30.4195H90.3009V14.0124C90.3009 12.8 89.4523 11.6281 87.957 11.4664V11.3452H92.9681V18.7809C93.7359 18.0131 94.8674 17.4069 96.3222 17.4069C99.9997 17.3665 101.535 19.5488 101.535 21.6502Z" fill="#46525B"/>
<path d="M114.224 21.2054L114.184 30.4193H111.557V28.4795C110.183 30.6213 103.313 32.9248 103.313 27.1055C103.313 22.539 108.041 23.024 111.557 21.7308V20.478C111.557 18.8616 110.87 18.0533 109.132 18.0533C108.243 18.0533 106.344 17.9725 105.01 19.8719L104.283 19.6698C105.414 17.5684 107.475 17.2451 109.051 17.2451C112.891 17.2451 114.224 18.7808 114.224 21.2054ZM111.597 27.7925V22.4986C108.971 23.3473 106.223 23.3473 106.223 26.9035C106.223 30.3789 109.253 30.5405 111.597 27.7925Z" fill="#46525B"/>
<path d="M124.611 17.3657V18.9418C122.711 18.9418 120.65 18.6589 119.963 22.6192V30.4591H117.337V20.0329C117.337 18.861 116.488 17.689 114.993 17.5274V17.4061H119.923V20.8007C120.731 17.9719 122.307 17.3657 124.611 17.3657Z" fill="#46525B"/>
<path d="M129.258 11.3047V30.4598H126.631V13.7294C126.631 12.6383 125.702 11.5876 124.328 11.4259V11.3047H129.258Z" fill="#46525B"/>
<path d="M133.986 23.4679C133.986 23.6699 133.986 23.872 133.986 24.074C133.986 28.883 138.351 32.5605 142.432 27.7919L142.877 28.196C142.715 28.5193 141.26 30.8228 137.502 30.8228C133.461 30.8228 131.117 27.9131 131.117 24.074C131.117 20.2349 133.461 17.3657 137.502 17.3657C142.311 17.3657 142.917 21.0432 142.917 22.498V23.5083H133.986V23.4679ZM134.067 22.4576H139.765C139.725 19.5884 139.24 18.2548 137.502 18.2548C135.845 18.2548 134.391 19.1842 134.067 22.4576Z" fill="#46525B"/>
<path d="M155 27.3479C155 29.4897 152.535 30.7829 149.383 30.7829C147.484 30.7829 144.736 29.8534 144.736 27.065H145.787C145.787 29.2472 147.928 29.8938 149.464 29.9342C151.283 29.9342 152.657 29.2068 152.657 27.9945C152.657 26.2972 151.242 26.0143 148.898 24.9636C147.403 24.317 144.776 23.1855 144.776 20.7204C144.776 18.8211 146.554 17.2046 149.949 17.2046C150.878 17.2046 154.152 17.4471 154.152 20.3567H153.182C153.182 18.3765 150.838 17.932 149.909 17.932C148.332 17.932 147.08 18.5786 147.08 19.9526C147.08 21.367 148.696 21.8519 150.596 22.741C153.303 24.0746 155 24.9636 155 27.3479Z" fill="#46525B"/>
<path d="M87.5941 43.5125C87.5941 50.4633 83.4721 53.4942 78.3802 53.4942C73.2884 53.4942 69.126 50.4633 69.126 43.5125C69.126 36.8042 73.248 33.5713 78.3398 33.5713C83.4317 33.5713 87.5941 36.7638 87.5941 43.5125ZM84.4824 43.5125C84.4824 37.37 81.7748 34.4199 78.3802 34.4199C75.0261 34.4199 72.2781 37.4104 72.2781 43.5125C72.2781 49.8571 75.0261 52.6051 78.3802 52.6051C81.7344 52.6051 84.4824 49.8571 84.4824 43.5125Z" fill="#46525B"/>
<path d="M108.366 40.0366L103.759 53.5341L99.5559 41.9764L95.5955 53.5341L91.4736 42.2593C91.0694 41.1681 90.2208 40.3195 88.8872 40.1579V40.0366H91.4331C92.6455 40.0366 93.777 40.8044 94.1811 41.936L96.4038 48.0785L99.1517 40.0366H101.617L104.526 48.0785L107.274 40.0366H108.366Z" fill="#46525B"/>
<path d="M123.64 40.0366V53.13H121.013V52.1197C120.205 52.8875 119.114 53.4937 117.659 53.4937C113.941 53.4937 112.446 51.3114 112.446 49.21L112.486 42.7038C112.486 41.4914 111.638 40.3599 110.143 40.1579V40.0366H115.073V49.0484C115.073 51.5135 116.528 52.2813 117.659 52.2813C119.235 52.2813 120.286 51.7964 120.973 50.9882V40.0366H123.64Z" fill="#46525B"/>
<path d="M135.765 50.0588C135.765 52.2006 133.299 53.4938 130.147 53.4938C128.248 53.4938 125.5 52.5643 125.5 49.7759H126.551C126.551 51.9582 128.693 52.6048 130.228 52.6452C132.047 52.6452 133.421 51.9178 133.421 50.7054C133.421 49.0081 132.006 48.7252 129.662 47.6745C128.167 47.028 125.54 45.8964 125.54 43.4313C125.54 41.532 127.319 39.9155 130.713 39.9155C131.643 39.9155 134.916 40.158 134.916 43.0676H133.986C133.986 41.0875 131.643 40.6429 130.713 40.6429C129.137 40.6429 127.884 41.2895 127.884 42.6635C127.884 44.0779 129.501 44.5629 131.4 45.4519C134.067 46.7855 135.765 47.6745 135.765 50.0588Z" fill="#46525B"/>
<path d="M148.979 40.0366V53.13H146.352V52.1197C145.544 52.8875 144.453 53.4937 142.998 53.4937C139.28 53.4937 137.785 51.3114 137.785 49.21L137.825 42.7038C137.825 41.4914 136.977 40.3599 135.481 40.1579V40.0366H140.412V49.0484C140.412 51.5135 141.866 52.2813 142.998 52.2813C144.574 52.2813 145.625 51.7964 146.312 50.9882V40.0366H148.979Z" fill="#46525B"/>
<path d="M31.7845 51.9985C23.5406 51.9985 16.8323 43.1483 16.8323 32.1968C16.8323 21.2453 23.5406 12.3951 31.7845 12.3951C36.8764 12.3951 41.4025 15.7897 44.1101 20.9624L47.9088 17.1637C39.9073 9.04098 26.6927 8.91974 18.2063 16.9212C9.84107 24.8419 9.55819 38.3394 17.6405 46.8258C25.6016 55.2314 38.9778 55.5143 47.5451 47.4724C47.6663 47.3511 47.7875 47.2299 47.9088 47.1087L44.1505 43.3504C41.4429 48.6039 36.9168 51.9985 31.7845 51.9985Z" fill="#46525B"/>
<path d="M54.2942 9.56614C48.2729 3.58523 40.3118 0.271484 31.8254 0.271484C23.339 0.271484 15.3375 3.58523 9.31614 9.56614C3.33523 15.5875 0.0214844 23.589 0.0214844 32.0754C0.0214844 40.5618 3.33523 48.5633 9.31614 54.5442C15.3375 60.5655 23.2985 63.8389 31.785 63.8389C40.2714 63.8389 48.2729 60.5251 54.2538 54.5442C60.2751 48.5229 63.5485 40.5618 63.5485 32.0754C63.5889 23.589 60.3155 15.5875 54.2942 9.56614ZM31.8254 62.869C17.0347 62.869 5.03252 49.1291 5.03252 32.1966C5.03252 15.2642 17.0347 1.52424 31.8254 1.52424C46.616 1.52424 58.6182 15.2642 58.6182 32.1966C58.6182 49.1291 46.616 62.869 31.8254 62.869Z" fill="#46525B"/>
<path d="M40.7562 24.3165C36.3918 20.0329 29.441 20.0733 25.1574 24.3974C20.8333 28.7618 20.8738 35.7126 25.2382 39.9962C29.6027 44.3203 36.513 44.2798 40.8371 39.9154C45.1207 35.5914 45.0803 28.6406 40.7562 24.3165ZM32.9972 42.2997C28.8752 42.2997 25.5211 37.7736 25.5211 32.1968C25.5211 26.62 28.8752 22.0939 32.9972 22.0939C37.1192 22.0939 40.4734 26.62 40.4734 32.1968C40.4734 37.7736 37.1192 42.2997 32.9972 42.2997Z" fill="#46525B"/>
</svg>
