<svg width="128" height="53" viewBox="0 0 128 53" fill="none" xmlns="http://www.w3.org/2000/svg">
<path d="M71.199 22.2807C70.9995 22.6796 69.2708 25.5387 64.7828 25.5387C59.9956 25.5387 57.2031 21.8818 57.2031 17.3273C57.2031 12.8061 59.9956 9.11597 64.7828 9.11597C69.3373 9.11597 71.0328 12.108 71.2322 12.4072L70.7003 12.9391C65.7802 7.02158 59.8959 10.9444 59.8959 17.2941C59.8959 23.1451 65.7469 27.5998 70.6671 21.7156L71.199 22.2807Z" fill="white"/>
<path d="M83.8312 17.926L83.798 25.1733H81.6371V18.059C81.6371 16.0311 80.4403 15.1003 79.4762 15.1003C78.2129 15.1003 77.3153 15.7984 76.7502 16.4633V25.14H74.5893V11.6429C74.5893 10.6455 73.8912 9.68144 72.6611 9.54846V9.44873H76.7834V15.5657C77.4151 14.934 78.3459 14.4354 79.5427 14.4354C82.5679 14.4021 83.8312 16.1973 83.8312 17.926Z" fill="white"/>
<path d="M94.2699 17.5602L94.2367 25.1399H92.0758V23.5442C90.9455 25.3061 85.2939 27.201 85.2939 22.4139C85.2939 18.6572 89.1835 19.0562 92.0758 17.9924V16.9618C92.0758 15.632 91.5106 14.9671 90.0811 14.9671C89.3497 14.9671 87.7873 14.9006 86.6902 16.4631L86.0918 16.2969C87.0226 14.5682 88.7181 14.3022 90.0146 14.3022C93.1728 14.3022 94.2699 15.5655 94.2699 17.5602ZM92.109 22.979V18.624C89.9481 19.3221 87.6875 19.3221 87.6875 22.2476C87.6875 25.1066 90.1809 25.2396 92.109 22.979Z" fill="white"/>
<path d="M102.813 14.4016V15.6981C101.25 15.6981 99.5546 15.4654 98.9894 18.7234V25.1728H96.8286V16.5957C96.8286 15.6317 96.1304 14.6676 94.9004 14.5346V14.4349H98.9562V17.2274C99.6211 14.9003 100.918 14.4016 102.813 14.4016Z" fill="white"/>
<path d="M106.637 9.41553V25.1733H104.476V11.4102C104.476 10.5126 103.711 9.64824 102.581 9.51526V9.41553H106.637Z" fill="white"/>
<path d="M110.526 19.4215C110.526 19.5877 110.526 19.7539 110.526 19.9202C110.526 23.8762 114.117 26.9015 117.474 22.9786L117.84 23.3111C117.707 23.577 116.51 25.472 113.419 25.472C110.094 25.472 108.166 23.0784 108.166 19.9202C108.166 16.762 110.094 14.4016 113.419 14.4016C117.375 14.4016 117.873 17.4268 117.873 18.6236V19.4547H110.526V19.4215ZM110.593 18.5904H115.28C115.247 16.23 114.848 15.133 113.419 15.133C112.056 15.133 110.859 15.8976 110.593 18.5904Z" fill="white"/>
<path d="M127.812 22.6134C127.812 24.3753 125.784 25.4391 123.191 25.4391C121.629 25.4391 119.368 24.6745 119.368 22.3807H120.233C120.233 24.1758 121.994 24.7078 123.258 24.741C124.754 24.741 125.884 24.1426 125.884 23.1453C125.884 21.749 124.72 21.5163 122.792 20.6519C121.562 20.12 119.401 19.1892 119.401 17.1613C119.401 15.5988 120.864 14.269 123.657 14.269C124.421 14.269 127.114 14.4685 127.114 16.8621H126.316C126.316 15.2331 124.388 14.8674 123.623 14.8674C122.327 14.8674 121.296 15.3993 121.296 16.5297C121.296 17.6932 122.626 18.0921 124.189 18.8235C126.416 19.9206 127.812 20.6519 127.812 22.6134Z" fill="white"/>
<path d="M72.3616 35.911C72.3616 41.629 68.9707 44.1223 64.7819 44.1223C60.5931 44.1223 57.1689 41.629 57.1689 35.911C57.1689 30.3925 60.5599 27.7329 64.7486 27.7329C68.9374 27.7329 72.3616 30.3592 72.3616 35.911ZM69.8018 35.911C69.8018 30.8579 67.5744 28.431 64.7819 28.431C62.0226 28.431 59.762 30.8911 59.762 35.911C59.762 41.1304 62.0226 43.391 64.7819 43.391C67.5412 43.391 69.8018 41.1304 69.8018 35.911Z" fill="white"/>
<path d="M89.4495 33.0518L85.6597 44.1554L82.2023 34.6475L78.9443 44.1554L75.5534 34.8802C75.221 33.9826 74.5228 33.2845 73.4258 33.1515V33.0518H75.5202C76.5175 33.0518 77.4483 33.6834 77.7808 34.6142L79.6092 39.6674L81.8698 33.0518H83.8977L86.2913 39.6674L88.5519 33.0518H89.4495Z" fill="white"/>
<path d="M102.015 33.0518V43.8229H99.8538V42.9918C99.189 43.6234 98.2914 44.1221 97.0946 44.1221C94.0361 44.1221 92.8061 42.3269 92.8061 40.5982L92.8393 35.2459C92.8393 34.2486 92.1412 33.3177 90.9111 33.1515V33.0518H94.9669V40.4652C94.9669 42.4931 96.1637 43.1248 97.0946 43.1248C98.3911 43.1248 99.2554 42.7258 99.8206 42.061V33.0518H102.015Z" fill="white"/>
<path d="M111.989 41.2965C111.989 43.0584 109.961 44.1222 107.368 44.1222C105.806 44.1222 103.545 43.3576 103.545 41.0638H104.409C104.409 42.859 106.171 43.3909 107.435 43.4241C108.931 43.4241 110.061 42.8257 110.061 41.8284C110.061 40.4321 108.897 40.1994 106.969 39.3351C105.739 38.8031 103.578 37.8723 103.578 35.8444C103.578 34.2819 105.041 32.9521 107.833 32.9521C108.598 32.9521 111.291 33.1516 111.291 35.5452H110.526C110.526 33.9162 108.598 33.5505 107.833 33.5505C106.537 33.5505 105.506 34.0825 105.506 35.2128C105.506 36.3763 106.836 36.7752 108.399 37.5066C110.593 38.6037 111.989 39.3351 111.989 41.2965Z" fill="white"/>
<path d="M122.858 33.0518V43.8229H120.698V42.9918C120.033 43.6234 119.135 44.1221 117.938 44.1221C114.88 44.1221 113.65 42.3269 113.65 40.5982L113.683 35.2459C113.683 34.2486 112.985 33.3177 111.755 33.1515V33.0518H115.811V40.4652C115.811 42.4931 117.007 43.1248 117.938 43.1248C119.235 43.1248 120.099 42.7258 120.664 42.061V33.0518H122.858Z" fill="white"/>
<path d="M26.4498 42.8918C19.668 42.8918 14.1494 35.6113 14.1494 26.6021C14.1494 17.5929 19.668 10.3124 26.4498 10.3124C30.6386 10.3124 34.3619 13.1049 36.5893 17.3602L39.7143 14.2352C33.1319 7.55308 22.261 7.45335 15.2797 14.0357C8.39815 20.5516 8.16544 31.6552 14.8143 38.6365C21.3634 45.5513 32.3673 45.784 39.4151 39.1684C39.5148 39.0687 39.6145 38.9689 39.7143 38.8692L36.6226 35.7775C34.3952 40.0993 30.6718 42.8918 26.4498 42.8918Z" fill="white"/>
<path d="M44.9684 7.98554C40.015 3.06539 33.4659 0.339355 26.4846 0.339355C19.5032 0.339355 12.9209 3.06539 7.96748 7.98554C3.04732 12.9389 0.321289 19.5213 0.321289 26.5026C0.321289 33.4839 3.04732 40.0663 7.96748 44.9864C12.9209 49.9398 19.47 52.6326 26.4513 52.6326C33.4326 52.6326 40.015 49.9066 44.9351 44.9864C49.8885 40.033 52.5813 33.4839 52.5813 26.5026C52.6146 19.5213 49.9218 12.9389 44.9684 7.98554ZM26.4846 51.8348C14.3171 51.8348 4.44358 40.5317 4.44358 26.6024C4.44358 12.673 14.3171 1.36993 26.4846 1.36993C38.652 1.36993 48.5255 12.673 48.5255 26.6024C48.5255 40.5317 38.652 51.8348 26.4846 51.8348Z" fill="white"/>
<path d="M33.8301 20.1198C30.2397 16.5959 24.5217 16.6292 20.9978 20.1863C17.4407 23.7767 17.4739 29.4947 21.0643 33.0186C24.6547 36.5758 30.3394 36.5425 33.8966 32.9521C37.4205 29.395 37.3872 23.677 33.8301 20.1198ZM27.4472 34.9135C24.0563 34.9135 21.297 31.1902 21.297 26.6025C21.297 22.0148 24.0563 18.2914 27.4472 18.2914C30.8381 18.2914 33.5974 22.0148 33.5974 26.6025C33.5974 31.1902 30.8381 34.9135 27.4472 34.9135Z" fill="white"/>
</svg>
