<svg width="155" height="56" viewBox="0 0 155 56" fill="none" xmlns="http://www.w3.org/2000/svg">
<path d="M49.293 12.1236C49.293 8.54558 52.0648 5.98291 55.785 5.98291C57.8517 5.98291 59.578 6.73237 60.6965 8.08623L58.9215 9.70603C58.1191 8.78734 57.1222 8.30381 55.9065 8.30381C53.6696 8.30381 52.0891 9.87526 52.0891 12.0995C52.0891 14.3478 53.6696 15.8951 55.9065 15.8951C57.0979 15.8951 58.1191 15.4116 58.9215 14.4929L60.6965 16.1127C59.578 17.4907 57.8517 18.2402 55.7606 18.2402C52.0648 18.2885 49.293 15.7017 49.293 12.1236Z" fill="#46525B"/>
<path d="M61.377 13.5014C61.377 10.7454 63.5166 8.78711 66.4344 8.78711C69.3521 8.78711 71.4675 10.7454 71.4675 13.5014C71.4675 16.2575 69.3521 18.2158 66.4344 18.2158C63.5166 18.2158 61.377 16.2575 61.377 13.5014ZM68.7686 13.5014C68.7686 11.93 67.7717 10.963 66.4344 10.963C65.0971 10.963 64.0759 11.9058 64.0759 13.5014C64.0759 15.0971 65.0971 16.0399 66.4344 16.0399C67.7474 16.0399 68.7686 15.0729 68.7686 13.5014Z" fill="#46525B"/>
<path d="M78.9561 8.78711V11.2289C78.7373 11.2047 78.5671 11.2047 78.3482 11.2047C76.8894 11.2047 75.9168 12.0025 75.9168 13.7432V18.0466H73.2422V8.93217H75.7952V10.141C76.4274 9.24645 77.5215 8.78711 78.9561 8.78711Z" fill="#46525B"/>
<path d="M90.5547 13.5014C90.5547 16.3784 88.5609 18.2158 85.9836 18.2158C84.8408 18.2158 83.8925 17.8531 83.2117 17.1037V21.3587H80.5371V8.93215H83.0901V9.9959C83.7466 9.19809 84.7435 8.81127 85.9836 8.81127C88.5609 8.78709 90.5547 10.6245 90.5547 13.5014ZM87.8558 13.5014C87.8558 11.93 86.8589 10.9629 85.5216 10.9629C84.1843 10.9629 83.1874 11.9058 83.1874 13.5014C83.1874 15.0971 84.1843 16.0399 85.5216 16.0399C86.8589 16.0399 87.8558 15.0729 87.8558 13.5014Z" fill="#46525B"/>
<path d="M91.6484 13.5014C91.6484 10.7454 93.7881 8.78711 96.7059 8.78711C99.6236 8.78711 101.739 10.7454 101.739 13.5014C101.739 16.2575 99.6236 18.2158 96.7059 18.2158C93.7881 18.2158 91.6484 16.2575 91.6484 13.5014ZM99.0401 13.5014C99.0401 11.93 98.0432 10.963 96.7059 10.963C95.3686 10.963 94.3474 11.9058 94.3474 13.5014C94.3474 15.0971 95.3686 16.0399 96.7059 16.0399C98.0432 16.0399 99.0401 15.0729 99.0401 13.5014Z" fill="#46525B"/>
<path d="M109.228 8.78711V11.2289C109.009 11.2047 108.839 11.2047 108.62 11.2047C107.161 11.2047 106.188 12.0025 106.188 13.7432V18.0466H103.514V8.93217H106.067V10.141C106.723 9.24645 107.817 8.78711 109.228 8.78711Z" fill="#46525B"/>
<path d="M118.906 12.8487V18.0707H116.401V16.9345C115.915 17.7564 114.942 18.2158 113.605 18.2158C111.441 18.2158 110.177 17.0312 110.177 15.4355C110.177 13.8157 111.32 12.7036 114.116 12.7036H116.231C116.231 11.5674 115.55 10.9146 114.116 10.9146C113.143 10.9146 112.122 11.2289 111.465 11.7608L110.517 9.89921C111.514 9.17393 113.022 8.78711 114.48 8.78711C117.277 8.78711 118.906 10.0926 118.906 12.8487ZM116.231 15.1938V14.2509H114.407C113.167 14.2509 112.778 14.7103 112.778 15.3147C112.778 15.9674 113.338 16.4268 114.286 16.4268C115.161 16.4268 115.915 16.0158 116.231 15.1938Z" fill="#46525B"/>
<path d="M127.22 17.6358C126.685 18.0226 125.859 18.216 125.056 18.216C122.892 18.216 121.628 17.1039 121.628 14.9281V11.1808H120.218V9.14998H121.628V6.92578H124.303V9.14998H126.588V11.1808H124.303V14.9039C124.303 15.6775 124.74 16.1127 125.445 16.1127C125.834 16.1127 126.223 15.9918 126.515 15.7742L127.22 17.6358Z" fill="#46525B"/>
<path d="M137.409 14.2512H130.455C130.722 15.3874 131.695 16.0885 133.081 16.0885C134.053 16.0885 134.758 15.7984 135.391 15.194L136.801 16.7171C135.95 17.6842 134.661 18.1919 133.008 18.1919C129.823 18.1919 127.756 16.2094 127.756 13.4775C127.756 10.7456 129.847 8.76318 132.667 8.76318C135.366 8.76318 137.457 10.5522 137.457 13.5017C137.457 13.7435 137.409 14.0336 137.409 14.2512ZM130.406 12.7039H134.929C134.734 11.5434 133.859 10.794 132.667 10.794C131.476 10.794 130.601 11.5434 130.406 12.7039Z" fill="#46525B"/>
<path d="M50.0469 21.6489H52.8187V33.5436H50.0469V21.6489Z" fill="#46525B"/>
<path d="M64.854 28.2974V33.5195H62.1794V28.6842C62.1794 27.2095 61.4986 26.5326 60.3071 26.5326C59.0185 26.5326 58.0945 27.3062 58.0945 28.9985V33.5195H55.4199V24.3809H57.9729V25.4446C58.7024 24.671 59.7722 24.2358 61.0123 24.2358C63.2249 24.26 64.854 25.5172 64.854 28.2974Z" fill="#46525B"/>
<path d="M73.194 33.084C72.6591 33.4709 71.8324 33.6643 71.03 33.6643C68.866 33.6643 67.6017 32.5522 67.6017 30.3763V26.629H66.1914V24.5982H67.6017V22.374H70.2763V24.5982H72.5618V26.629H70.2519V30.3521C70.2519 31.1258 70.6896 31.5609 71.3947 31.5609C71.7838 31.5609 72.1728 31.4401 72.4646 31.2225L73.194 33.084Z" fill="#46525B"/>
<path d="M83.3579 29.7238H76.404C76.6714 30.8601 77.644 31.5612 79.03 31.5612C80.0025 31.5612 80.7077 31.2711 81.3398 30.6667L82.7501 32.1898C81.8991 33.1568 80.6104 33.6645 78.957 33.6645C75.7718 33.6645 73.7051 31.6821 73.7051 28.9502C73.7051 26.2183 75.7961 24.2358 78.6166 24.2358C81.3155 24.2358 83.4066 26.0249 83.4066 28.9744C83.4066 29.1919 83.3823 29.4821 83.3579 29.7238ZM76.3797 28.1765H80.9022C80.7077 27.0161 79.8323 26.2666 78.6409 26.2666C77.4252 26.2666 76.5499 26.9919 76.3797 28.1765Z" fill="#46525B"/>
<path d="M85.1807 20.9238H87.8553V33.5196H85.1807V20.9238Z" fill="#46525B"/>
<path d="M90.3359 20.9238H93.0105V33.5196H90.3359V20.9238Z" fill="#46525B"/>
<path d="M95.1504 21.6491C95.1504 20.8271 95.8069 20.1743 96.8038 20.1743C97.8007 20.1743 98.4572 20.7787 98.4572 21.6007C98.4572 22.4952 97.8007 23.1238 96.8038 23.1238C95.8069 23.1238 95.1504 22.471 95.1504 21.6491ZM95.4665 24.4051H98.1411V33.5437H95.4665V24.4051Z" fill="#46525B"/>
<path d="M110.104 24.4048V32.0203C110.104 35.4291 108.256 36.9764 104.949 36.9764C103.199 36.9764 101.521 36.5412 100.427 35.7192L101.497 33.8093C102.275 34.4379 103.563 34.8489 104.755 34.8489C106.627 34.8489 107.454 34.0027 107.454 32.3588V31.9719C106.749 32.7456 105.752 33.1082 104.56 33.1082C102.007 33.1082 99.9648 31.3675 99.9648 28.684C99.9648 26.0246 102.007 24.2598 104.56 24.2598C105.849 24.2598 106.894 24.6949 107.6 25.5653V24.4048H110.104ZM107.454 28.684C107.454 27.3301 106.457 26.4356 105.047 26.4356C103.636 26.4356 102.615 27.3301 102.615 28.684C102.615 30.0379 103.636 30.9324 105.047 30.9324C106.457 30.9082 107.454 30.0137 107.454 28.684Z" fill="#46525B"/>
<path d="M121.531 29.7238H114.577C114.844 30.8601 115.817 31.5612 117.203 31.5612C118.175 31.5612 118.881 31.2711 119.513 30.6667L120.923 32.1898C120.072 33.1568 118.783 33.6645 117.13 33.6645C113.945 33.6645 111.878 31.6821 111.878 28.9502C111.878 26.2183 113.969 24.2358 116.789 24.2358C119.488 24.2358 121.579 26.0249 121.579 28.9744C121.579 29.1919 121.531 29.4821 121.531 29.7238ZM114.528 28.1765H119.051C118.856 27.0161 117.981 26.2666 116.789 26.2666C115.598 26.2666 114.723 26.9919 114.528 28.1765Z" fill="#46525B"/>
<path d="M132.741 28.2974V33.5195H130.066V28.6842C130.066 27.2095 129.385 26.5326 128.194 26.5326C126.905 26.5326 125.981 27.3062 125.981 28.9985V33.5195H123.307V24.3809H125.86V25.4446C126.589 24.671 127.659 24.2358 128.899 24.2358C131.112 24.26 132.741 25.5172 132.741 28.2974Z" fill="#46525B"/>
<path d="M134.588 28.9741C134.588 26.218 136.728 24.2598 139.718 24.2598C141.639 24.2598 143.171 25.0818 143.827 26.5807L141.761 27.6928C141.274 26.8224 140.521 26.4356 139.694 26.4356C138.332 26.4356 137.287 27.3785 137.287 28.9741C137.287 30.5697 138.357 31.5126 139.694 31.5126C140.521 31.5126 141.274 31.15 141.761 30.2554L143.827 31.3675C143.171 32.8181 141.639 33.6884 139.718 33.6884C136.703 33.6643 134.588 31.706 134.588 28.9741Z" fill="#46525B"/>
<path d="M154.186 29.7238H147.232C147.5 30.8601 148.472 31.5612 149.858 31.5612C150.831 31.5612 151.536 31.2711 152.168 30.6667L153.578 32.1898C152.727 33.1568 151.439 33.6645 149.785 33.6645C146.6 33.6645 144.533 31.6821 144.533 28.9502C144.533 26.2183 146.624 24.2358 149.445 24.2358C152.144 24.2358 154.235 26.0249 154.235 28.9744C154.235 29.1919 154.21 29.4821 154.186 29.7238ZM147.208 28.1765H151.73C151.536 27.0161 150.66 26.2666 149.469 26.2666C148.253 26.2666 147.402 26.9919 147.208 28.1765Z" fill="#46525B"/>
<path d="M61.0127 45.7527C61.0127 47.8077 59.3837 48.9923 56.2228 48.9923H50.0469V37.0977H55.8824C58.873 37.0977 60.4049 38.3306 60.4049 40.1922C60.4049 41.3768 59.797 42.2955 58.8244 42.8032C60.1617 43.2384 61.0127 44.2538 61.0127 45.7527ZM52.7944 39.1768V41.9812H55.542C56.9036 41.9812 57.633 41.4977 57.633 40.579C57.633 39.6361 56.9036 39.1768 55.542 39.1768H52.7944ZM58.2166 45.4626C58.2166 44.4714 57.4385 43.9878 56.0039 43.9878H52.7701V46.9373H56.0039C57.4628 46.9131 58.2166 46.478 58.2166 45.4626Z" fill="#46525B"/>
<path d="M72.1728 39.8535V48.9921H69.6441V47.9042C68.939 48.702 67.9178 49.1371 66.7993 49.1371C64.4894 49.1371 62.8604 47.8558 62.8604 45.0272V39.8535H65.5349V44.6162C65.5349 46.1393 66.2158 46.8162 67.4072 46.8162C68.6472 46.8162 69.5225 46.0426 69.5225 44.3503V39.8535H72.1728Z" fill="#46525B"/>
<path d="M80.3672 39.7085V42.1503C80.1484 42.1261 79.9782 42.1261 79.7594 42.1261C78.3005 42.1261 77.3279 42.9239 77.3279 44.6646V48.9679H74.6533V39.8536H77.2063V41.0624C77.8628 40.1678 78.957 39.7085 80.3672 39.7085Z" fill="#46525B"/>
<path d="M90.8218 45.1725H83.8679C84.1353 46.3088 85.1079 47.0099 86.4938 47.0099C87.4664 47.0099 88.1715 46.7198 88.8037 46.1154L90.214 47.6385C89.3629 48.6055 88.0743 49.1132 86.4209 49.1132C83.2357 49.1132 81.1689 47.1308 81.1689 44.3989C81.1689 41.667 83.26 39.6846 86.0805 39.6846C88.7794 39.6846 90.8704 41.4736 90.8704 44.4231C90.8704 44.6648 90.8461 44.955 90.8218 45.1725ZM83.8435 43.6253H88.366C88.1715 42.4648 87.2962 41.7154 86.1048 41.7154C84.8891 41.7154 84.0137 42.4648 83.8435 43.6253Z" fill="#46525B"/>
<path d="M100.524 43.7701V48.9921H98.0194V47.8558C97.5332 48.6778 96.5606 49.1372 95.2233 49.1372C93.0593 49.1372 91.7949 47.9525 91.7949 46.3569C91.7949 44.7371 92.9377 43.625 95.7339 43.625H97.8492C97.8492 42.4887 97.1684 41.836 95.7339 41.836C94.7613 41.836 93.7401 42.1503 93.0836 42.6822L92.1353 40.8206C93.1322 40.0953 94.6397 39.7085 96.0986 39.7085C98.8948 39.7085 100.524 41.014 100.524 43.7701ZM97.8736 46.1152V45.1723H96.0256C94.7856 45.1723 94.3966 45.6316 94.3966 46.236C94.3966 46.8888 94.9558 47.3481 95.9041 47.3481C96.7794 47.3481 97.5575 46.9371 97.8736 46.1152Z" fill="#46525B"/>
<path d="M112.194 39.8535V48.9921H109.666V47.9042C108.96 48.702 107.939 49.1371 106.821 49.1371C104.511 49.1371 102.882 47.8558 102.882 45.0272V39.8535H105.556V44.6162C105.556 46.1393 106.237 46.8162 107.429 46.8162C108.669 46.8162 109.544 46.0426 109.544 44.3503V39.8535H112.194Z" fill="#46525B"/>
<path d="M11.1017 41.9903C17.6575 46.5249 18.8768 48.4458 18.8768 48.4458C18.8768 48.4458 20.0803 46.5249 26.6519 41.9903C29.9614 39.7073 31.2124 35.4719 31.2124 31.5672L31.2282 5.02112C31.2282 4.24962 30.8007 3.54109 30.1197 3.1947C26.7627 1.44701 22.9464 0.455078 18.8768 0.455078C14.823 0.455078 11.0067 1.44701 7.63385 3.1947C6.95294 3.55684 6.52539 4.26536 6.52539 5.02112L6.54123 31.5829C6.55706 35.4877 7.7922 39.7073 11.1017 41.9903ZM24.6566 36.7315C23.8649 37.4873 22.8831 37.8966 21.1096 37.8966H13.097V24.97H20.8879C22.503 24.97 23.659 25.4581 24.3716 26.2139C24.8941 26.7492 25.195 27.4262 25.195 28.1505C25.195 29.2526 24.5141 30.2446 23.564 30.7484C25.0842 31.268 25.8918 32.4489 25.8918 33.9604C25.8759 34.9996 25.4801 35.9443 24.6566 36.7315ZM18.4176 7.745C17.6575 7.745 16.9132 7.94969 16.264 8.32757C15.7098 8.65821 14.9972 8.56374 14.538 8.10714L13.2712 6.84754C14.6488 5.47773 16.4699 4.73771 18.4017 4.73771C22.5664 4.73771 25.9393 8.24884 25.6542 12.4528C25.4167 16.0741 22.4239 19.0027 18.766 19.1759C16.6915 19.2703 14.728 18.5146 13.2712 17.066L14.538 15.8064C14.9972 15.3498 15.7098 15.2711 16.2798 15.6017C17.0083 16.0269 17.8633 16.2315 18.7501 16.1528C20.7612 15.9954 22.4239 14.4051 22.6456 12.4213C22.9148 9.90207 20.9195 7.745 18.4176 7.745ZM13.0178 21.2227C13.0178 20.7818 13.3978 20.4355 13.8571 20.4355H25.4009V22.0414C25.4009 22.813 24.7358 23.4428 23.9124 23.4428H13.0178V21.2227Z" fill="#46525B"/>
<path d="M20.5392 30.166C21.0776 30.166 21.4894 30.04 21.7902 29.7566C22.0753 29.4732 22.2336 29.1111 22.2336 28.7017C22.2336 28.3238 22.0753 28.0089 21.8377 27.7728C21.7902 27.7098 21.7269 27.6626 21.6635 27.6153C21.6477 27.6153 21.6477 27.5996 21.6319 27.5996C21.5685 27.5523 21.5052 27.5209 21.426 27.4894C21.4102 27.4894 21.4102 27.4736 21.3943 27.4736C21.3152 27.4421 21.236 27.4106 21.141 27.3949H21.1251C20.9668 27.3634 20.7768 27.3477 20.5551 27.3477H15.9629V30.1818H16.9605H20.5392V30.166Z" fill="#46525B"/>
<path d="M21.0143 32.3071H15.9629V35.5663H17.0555H21.0143C21.616 35.5663 22.1069 35.3931 22.4553 35.0782C22.7403 34.7791 22.9145 34.3697 22.9145 33.9446C22.9145 33.5352 22.7403 33.1574 22.4553 32.8582C22.0911 32.4961 21.6319 32.3071 21.0143 32.3071Z" fill="#46525B"/>
<path d="M4.21374 15.3812C2.9311 15.1765 1.60094 15.0663 0.207452 15.019C0.207452 16.7667 0.175781 17.9004 0.175781 19.6323C1.56927 19.6166 2.91526 19.7268 4.19791 19.9472L4.21374 15.3812Z" fill="#46525B"/>
<path d="M1.04629 28.0719C2.15475 28.1663 3.21571 28.3868 4.21332 28.7174V24.5607C2.94651 24.2616 1.61636 24.1041 0.207031 24.0884C0.207031 25.222 0.222866 28.0719 0.222866 28.0719C0.222866 28.0719 0.887942 28.0561 1.04629 28.0719Z" fill="#46525B"/>
<path d="M2.9945 37.1096C2.9945 37.1096 3.83376 36.4798 4.7522 35.787C4.54634 34.9368 4.40383 34.0708 4.32465 33.1576C3.12118 32.512 1.80686 32.1971 0.318359 32.1499V36.3381C0.99927 36.4955 1.45849 36.653 2.01272 36.7947C2.34526 36.8734 2.9945 37.1096 2.9945 37.1096Z" fill="#46525B"/>
<path d="M5.63921 38.4951C4.0557 39.6602 2.47219 40.8254 0.888672 41.9905C2.18715 43.0139 3.32728 43.9114 4.48325 44.8246C5.71839 43.9114 6.90602 43.0454 8.07782 42.1794C7.08021 41.1403 6.27262 39.8964 5.63921 38.4951Z" fill="#46525B"/>
<path d="M29.708 42.3369C29.2172 42.8407 28.6788 43.2973 28.1087 43.691C22.6297 47.4697 21.1096 49.3277 20.9671 49.5166L18.9718 52.6813L17.9267 51.0281C16.9766 51.7366 16.0107 52.4294 15.0605 53.1379C16.1057 53.9724 16.9924 54.618 17.8 55.3422C18.4018 55.8776 18.861 55.8618 19.4944 55.3737C25.2742 51.0753 31.0699 46.8242 36.8655 42.5416C37.1347 42.3526 37.4989 42.0535 37.5148 41.8016C37.5781 40.1483 37.5464 38.4794 37.5464 36.5742C34.902 38.5109 32.2892 40.4317 29.708 42.3369Z" fill="#46525B"/>
<path d="M11.5614 44.9189C10.3579 45.8007 9.17027 46.6824 7.9668 47.5641C9.26528 48.5875 10.3896 49.4535 11.4664 50.3037C11.6564 50.2408 11.7514 50.225 11.8147 50.1778C12.9232 49.359 14.0317 48.5403 15.1559 47.7216C14.3167 47.013 13.1607 46.0841 11.5614 44.9189Z" fill="#46525B"/>
<path d="M33.699 28.6227V31.3151C33.699 32.3227 33.6198 33.2989 33.4932 34.2436C34.665 33.3777 35.8209 32.5274 36.9927 31.6615C37.2619 31.4568 37.5153 31.0474 37.5311 30.7168C37.5945 29.1737 37.5628 27.615 37.5628 25.7886C36.2643 26.7333 34.9817 27.678 33.699 28.6227Z" fill="#46525B"/>
<path d="M37.5153 19.7584C37.642 18.2941 37.5628 16.8141 37.5628 15.0034C36.2801 15.9481 34.9975 16.8928 33.7148 17.8375V23.2853C34.6808 22.5768 35.6467 21.8525 36.6127 21.144C37.0244 20.8291 37.4678 20.2465 37.5153 19.7584Z" fill="#46525B"/>
</svg>
