<svg width="207" height="56" viewBox="0 0 207 56" fill="none" xmlns="http://www.w3.org/2000/svg">
<path d="M80.6212 29.3736C78.7347 30.8161 75.6277 31.9258 72.5206 31.9258C66.7133 31.9258 63.5322 27.783 63.5322 22.9375C63.5322 17.722 67.3421 13.6162 72.6685 13.6162C76.8483 13.6162 81.324 16.1685 81.324 22.4936C81.324 22.7895 81.324 23.1224 81.25 23.9362H68.1559C68.5258 26.3774 70.2272 28.1159 73.1124 28.1159C74.9988 28.1159 77.0332 27.3761 78.4018 26.3405L80.6212 29.3736ZM68.2298 20.8291H76.5154C76.4784 18.3878 74.407 17.2411 72.5946 17.2411C70.1163 17.2042 68.7847 18.8687 68.2298 20.8291Z" fill="#46525B"/>
<path d="M99.9659 14.1709L92.5311 31.3708H88.7582L81.3604 14.1709H86.5758L90.6446 25.0457H90.8665L95.1203 14.1709H99.9659Z" fill="#46525B"/>
<path d="M109.324 13.6162C114.946 13.6162 118.719 17.611 118.719 22.7155C118.719 27.82 114.909 31.9258 109.324 31.9258C103.739 31.9258 99.9658 27.82 99.9658 22.7155C99.9658 17.611 103.739 13.6162 109.324 13.6162ZM109.324 28.042C112.246 28.042 113.948 25.5637 113.948 22.7155C113.948 19.9044 112.246 17.5371 109.324 17.5371C106.476 17.5371 104.811 19.9044 104.811 22.7155C104.811 25.5637 106.439 28.042 109.324 28.042Z" fill="#46525B"/>
<path d="M121.346 31.3709V6.69922H126.08V31.3709H121.346Z" fill="#46525B"/>
<path d="M135.883 31.9626C132.406 31.9626 129.595 29.3364 129.595 25.7485V14.1709H134.329V25.5635C134.329 26.8951 135.476 27.9678 137.177 27.9678C138.879 27.9678 140.137 26.8582 141.135 25.7485V14.1709H145.833V26.5253C145.833 27.9308 145.907 29.4844 146.24 31.4078H141.875C141.764 30.816 141.69 29.8543 141.653 29.1885C140.322 30.668 138.583 31.9626 135.883 31.9626Z" fill="#46525B"/>
<path d="M147.645 14.1713H150.641V9.32568H155.338V14.2082H159.555V17.6852H155.338V26.5996C155.338 27.6723 156.004 28.1161 157.225 28.1161C157.891 28.1161 158.815 27.9682 159.407 27.8572L159.777 31.3712C159.111 31.889 156.966 32.037 156.041 32.037C153.489 32.037 150.678 30.7794 150.678 26.9325V17.6852H147.682V14.1713H147.645Z" fill="#46525B"/>
<path d="M164.328 6.40332C165.918 6.40332 167.139 7.58697 167.139 8.99256C167.139 10.3612 165.918 11.5078 164.328 11.5078C162.737 11.5078 161.554 10.3981 161.554 8.99256C161.554 7.54998 162.737 6.40332 164.328 6.40332ZM161.998 31.3709V14.171H166.695V31.3709H161.998Z" fill="#46525B"/>
<path d="M178.568 13.6162C184.191 13.6162 187.963 17.611 187.963 22.7155C187.963 27.82 184.154 31.9258 178.568 31.9258C172.983 31.9258 169.21 27.82 169.21 22.7155C169.247 17.611 173.02 13.6162 178.568 13.6162ZM178.568 28.042C181.49 28.042 183.192 25.5637 183.192 22.7155C183.192 19.9044 181.49 17.5371 178.568 17.5371C175.72 17.5371 174.056 19.9044 174.056 22.7155C174.056 25.5637 175.72 28.042 178.568 28.042Z" fill="#46525B"/>
<path d="M200.502 13.6162C203.979 13.6162 206.79 16.2424 206.79 19.8304V31.408H202.056V20.0153C202.056 18.7207 200.909 17.611 199.208 17.611C197.506 17.611 196.248 18.7207 195.25 19.8304V31.408H190.552V19.0906C190.552 17.648 190.441 16.0945 190.071 14.208H194.362C194.51 14.8738 194.658 15.6506 194.732 16.4644C196.027 14.8738 197.839 13.6162 200.502 13.6162Z" fill="#46525B"/>
<path d="M74.1852 42.2827C73.1125 43.2814 71.448 44.2062 69.3766 44.2062C66.2325 44.2062 64.1611 41.9498 64.1611 39.1757C64.1611 36.4385 66.2325 34.1821 69.3026 34.1821C71.0411 34.1821 72.7426 34.8479 73.8893 35.8466L72.5946 37.2152C71.7439 36.4755 70.5233 35.9946 69.4876 35.9946C67.5641 35.9946 66.3435 37.4742 66.3435 39.2126C66.3435 40.9881 67.6011 42.4307 69.5615 42.4307C70.8562 42.4307 72.0398 41.7649 72.8906 40.9141L74.1852 42.2827Z" fill="#46525B"/>
<path d="M79.6965 34.2192C82.6927 34.2192 85.097 36.4756 85.097 39.2128C85.097 42.0239 82.6927 44.2433 79.6965 44.2433C76.7004 44.2433 74.3701 42.0239 74.3701 39.2128C74.3701 36.4386 76.7004 34.2192 79.6965 34.2192ZM79.6965 42.4308C81.509 42.4308 82.9146 40.9512 82.9146 39.1758C82.9146 37.4373 81.509 35.9947 79.6965 35.9947C77.9211 35.9947 76.5155 37.4373 76.5155 39.1758C76.5525 40.9882 77.9211 42.4308 79.6965 42.4308Z" fill="#46525B"/>
<path d="M95.2326 34.478V43.9102H93.4571L88.6485 38.066V43.9102H86.5771V34.478H88.3526L93.1612 40.3223V34.478H95.2326Z" fill="#46525B"/>
<path d="M104.183 36.9191C103.628 36.5122 102.445 35.9204 100.854 35.9204C99.9294 35.9204 99.0786 36.2533 99.0786 37.067C99.0786 37.9178 100.336 37.9548 101.557 38.0657C103.295 38.1767 105.959 38.3986 105.959 40.9879C105.959 43.3182 104.035 44.2429 101.705 44.2429C99.2636 44.2429 97.5991 43.2812 96.5264 42.3935L97.71 40.9879C98.5238 41.6167 99.8554 42.5784 101.779 42.5784C102.962 42.5784 103.924 42.0975 103.924 41.2468C103.924 40.3221 102.962 40.1371 101.52 40.0262C99.4485 39.8782 97.0072 39.6563 97.0072 37.252C97.0072 34.9587 99.1156 34.2559 100.928 34.2559C102.888 34.2559 104.553 34.9956 105.367 35.5135L104.183 36.9191Z" fill="#46525B"/>
<path d="M115.798 34.478V40.5072C115.798 42.8745 113.986 44.2062 111.47 44.2062C109.029 44.2062 107.18 42.8745 107.18 40.5072V34.478H109.251V40.5072C109.251 41.7649 110.25 42.4307 111.47 42.4307C112.765 42.4307 113.727 41.7649 113.727 40.5072V34.478H115.798Z" fill="#46525B"/>
<path d="M119.978 34.478V42.1348H125.526V43.9102H117.906V34.478H119.978Z" fill="#46525B"/>
<path d="M124.416 34.478H133.33V36.2535H129.927V43.9102H127.856V36.2905H124.416V34.478Z" fill="#46525B"/>
<path d="M27.9485 37.4371C26.099 37.4371 24.2865 36.8823 22.77 35.8836C21.4754 35.0328 19.7739 35.2178 18.6272 36.2165L16.001 38.5468C19.0341 41.9498 23.3618 43.9102 27.9485 43.9102C36.7149 43.9102 43.8907 36.7713 43.8907 27.9679C43.8538 19.2385 36.7149 12.0996 27.9485 12.0996C24.2126 12.0996 20.5876 13.3942 17.7395 15.7985L19.9958 18.4987C20.9945 19.6824 22.659 20.0893 24.0646 19.4234C25.2852 18.8686 26.5799 18.6097 27.9115 18.6097C33.0899 18.6097 37.3437 22.8264 37.3437 28.0419C37.3807 33.2204 33.1269 37.4371 27.9485 37.4371Z" fill="#46525B"/>
<path d="M29.2431 0.299968C21.5124 -0.0699227 14.1516 2.74125 8.64018 8.06768C3.46171 13.0982 0.465594 19.8302 0.20667 27.0431L0.0957031 30.4831L3.53569 30.4091H23.7687L18.4053 23.899H7.08664C8.97308 14.0969 17.5176 6.81005 27.8375 6.77306C39.0822 6.73607 48.5514 15.6134 49.1432 26.8581C49.809 39.1015 40.0439 49.2365 27.9485 49.2365C23.0659 49.2365 18.4793 47.609 14.7434 44.6129C13.3748 43.5402 11.4144 43.6512 10.1567 44.8348L7.78943 47.0542C13.0789 52.6765 20.2548 55.7466 27.9485 55.7466C43.262 55.7466 55.7273 43.2813 55.6903 27.9308C55.6533 13.2461 43.9278 0.965772 29.2431 0.299968Z" fill="#46525B"/>
</svg>
