<svg width="202" height="55" viewBox="0 0 202 55" fill="none" xmlns="http://www.w3.org/2000/svg">
<path d="M78.4905 28.7952C76.6543 30.1994 73.6299 31.2795 70.6055 31.2795C64.9528 31.2795 61.8564 27.247 61.8564 22.5304C61.8564 17.4538 65.5649 13.4573 70.7496 13.4573C74.8181 13.4573 79.1746 15.9416 79.1746 22.0984C79.1746 22.3864 79.1746 22.7104 79.1026 23.5025H66.357C66.7171 25.8788 68.3733 27.571 71.1816 27.571C73.0178 27.571 74.9981 26.8509 76.3302 25.8428L78.4905 28.7952ZM66.429 20.4782H74.494C74.458 18.1019 72.4418 16.9857 70.6775 16.9857C68.2652 16.9497 66.9691 18.5699 66.429 20.4782Z" fill="white"/>
<path d="M97.3192 13.9968L90.0823 30.7389H86.4099L79.209 13.9968H84.2856L88.2461 24.5821H88.4621L92.6027 13.9968H97.3192Z" fill="white"/>
<path d="M106.43 13.4573C111.903 13.4573 115.576 17.3458 115.576 22.3144C115.576 27.283 111.867 31.2795 106.43 31.2795C100.994 31.2795 97.3213 27.283 97.3213 22.3144C97.3213 17.3458 100.994 13.4573 106.43 13.4573ZM106.43 27.499C109.275 27.499 110.931 25.0867 110.931 22.3144C110.931 19.578 109.275 17.2738 106.43 17.2738C103.658 17.2738 102.038 19.578 102.038 22.3144C102.038 25.0867 103.622 27.499 106.43 27.499Z" fill="white"/>
<path d="M118.131 30.7391V6.72412H122.739V30.7391H118.131Z" fill="white"/>
<path d="M132.281 31.315C128.896 31.315 126.16 28.7587 126.16 25.2662V13.9968H130.769V25.0862C130.769 26.3824 131.885 27.4265 133.541 27.4265C135.197 27.4265 136.421 26.3464 137.394 25.2662V13.9968H141.966V26.0223C141.966 27.3905 142.038 28.9027 142.362 30.7749H138.114C138.006 30.1988 137.934 29.2627 137.898 28.6146C136.601 30.0548 134.909 31.315 132.281 31.315Z" fill="white"/>
<path d="M143.729 13.9974H146.646V9.28076H151.218V14.0334H155.323V17.4178H151.218V26.0949C151.218 27.139 151.867 27.571 153.055 27.571C153.703 27.571 154.603 27.427 155.179 27.319L155.539 30.7394C154.891 31.2435 152.803 31.3875 151.903 31.3875C149.418 31.3875 146.682 30.1634 146.682 26.4189V17.4178H143.765V13.9974H143.729Z" fill="white"/>
<path d="M159.969 6.43604C161.517 6.43604 162.705 7.58818 162.705 8.95635C162.705 10.2885 161.517 11.4047 159.969 11.4047C158.421 11.4047 157.269 10.3245 157.269 8.95635C157.269 7.55217 158.421 6.43604 159.969 6.43604ZM157.701 30.7391V13.997H162.273V30.7391H157.701Z" fill="white"/>
<path d="M173.83 13.4573C179.303 13.4573 182.975 17.3458 182.975 22.3144C182.975 27.283 179.267 31.2795 173.83 31.2795C168.393 31.2795 164.721 27.283 164.721 22.3144C164.757 17.3458 168.429 13.4573 173.83 13.4573ZM173.83 27.499C176.674 27.499 178.33 25.0867 178.33 22.3144C178.33 19.578 176.674 17.2738 173.83 17.2738C171.057 17.2738 169.437 19.578 169.437 22.3144C169.437 25.0867 171.057 27.499 173.83 27.499Z" fill="white"/>
<path d="M195.181 13.4573C198.565 13.4573 201.301 16.0136 201.301 19.506V30.7754H196.693V19.6861C196.693 18.4259 195.577 17.3458 193.92 17.3458C192.264 17.3458 191.04 18.4259 190.068 19.506V30.7754H185.495V18.7859C185.495 17.3818 185.387 15.8696 185.027 14.0333H189.204C189.348 14.6814 189.492 15.4375 189.564 16.2296C190.824 14.6814 192.588 13.4573 195.181 13.4573Z" fill="white"/>
<path d="M72.2269 41.3606C71.1828 42.3327 69.5626 43.2328 67.5464 43.2328C64.486 43.2328 62.4697 41.0365 62.4697 38.3362C62.4697 35.6719 64.486 33.4756 67.4744 33.4756C69.1666 33.4756 70.8228 34.1237 71.9389 35.0958L70.6788 36.428C69.8506 35.7079 68.6625 35.2398 67.6544 35.2398C65.7821 35.2398 64.594 36.68 64.594 38.3722C64.594 40.1004 65.8181 41.5046 67.7264 41.5046C68.9865 41.5046 70.1387 40.8565 70.9668 40.0284L72.2269 41.3606Z" fill="white"/>
<path d="M77.5909 33.5117C80.5073 33.5117 82.8476 35.708 82.8476 38.3723C82.8476 41.1087 80.5073 43.2689 77.5909 43.2689C74.6745 43.2689 72.4062 41.1087 72.4062 38.3723C72.4063 35.672 74.6745 33.5117 77.5909 33.5117ZM77.5909 41.5047C79.3551 41.5047 80.7233 40.0645 80.7233 38.3363C80.7233 36.6441 79.3551 35.2399 77.5909 35.2399C75.8627 35.2399 74.4945 36.6441 74.4945 38.3363C74.5305 40.1005 75.8627 41.5047 77.5909 41.5047Z" fill="white"/>
<path d="M92.7151 33.7634V42.9446H90.9869L86.3063 37.2559V42.9446H84.29V33.7634H86.0183L90.6988 39.4521V33.7634H92.7151Z" fill="white"/>
<path d="M101.427 36.1397C100.886 35.7436 99.7343 35.1676 98.1862 35.1676C97.286 35.1676 96.4579 35.4916 96.4579 36.2837C96.4579 37.1118 97.6821 37.1478 98.8702 37.2558C100.562 37.3638 103.155 37.5799 103.155 40.1002C103.155 42.3685 101.283 43.2686 99.0143 43.2686C96.638 43.2686 95.0178 42.3325 93.9736 41.4684L95.1258 40.1002C95.9179 40.7123 97.214 41.6484 99.0863 41.6484C100.238 41.6484 101.175 41.1803 101.175 40.3522C101.175 39.4521 100.238 39.2721 98.8342 39.1641C96.818 39.02 94.4417 38.804 94.4417 36.4637C94.4417 34.2314 96.4939 33.5474 98.2582 33.5474C100.166 33.5474 101.787 34.2675 102.579 34.7715L101.427 36.1397Z" fill="white"/>
<path d="M112.734 33.7634V39.6322C112.734 41.9364 110.97 43.2326 108.521 43.2326C106.145 43.2326 104.345 41.9364 104.345 39.6322V33.7634H106.361V39.6322C106.361 40.8563 107.333 41.5044 108.521 41.5044C109.781 41.5044 110.718 40.8563 110.718 39.6322V33.7634H112.734Z" fill="white"/>
<path d="M116.8 33.7634V41.2164H122.201V42.9446H114.784V33.7634H116.8Z" fill="white"/>
<path d="M121.121 33.7634H129.798V35.4916H126.486V42.9446H124.47V35.5276H121.121V33.7634Z" fill="white"/>
<path d="M27.2203 36.644C25.42 36.644 23.6558 36.104 22.1796 35.1318C20.9195 34.3037 19.2633 34.4838 18.1471 35.4559L15.5908 37.7242C18.5432 41.0366 22.7557 42.9448 27.2203 42.9448C35.7533 42.9448 42.7382 35.996 42.7382 27.4269C42.7022 18.9298 35.7533 11.981 27.2203 11.981C23.5838 11.981 20.0554 13.2411 17.283 15.5814L19.4793 18.2097C20.4514 19.3619 22.0716 19.7579 23.4398 19.1098C24.6279 18.5698 25.8881 18.3177 27.1843 18.3177C32.2249 18.3177 36.3654 22.4223 36.3654 27.4989C36.4014 32.5395 32.2609 36.644 27.2203 36.644Z" fill="white"/>
<path d="M28.479 0.495883C20.954 0.135838 13.7891 2.87218 8.42446 8.05683C3.38383 12.9534 0.467467 19.5063 0.215435 26.5271L0.107422 29.8756L3.45584 29.8035H23.1503L17.9296 23.4668H6.91227C8.7485 13.9256 17.0655 6.83267 27.1108 6.79667C38.0562 6.76067 47.2733 15.4017 47.8494 26.3471C48.4975 38.2646 38.9923 48.1298 27.2188 48.1298C22.4662 48.1298 18.0017 46.5456 14.3652 43.6293C13.033 42.5851 11.1248 42.6932 9.90065 43.8453L7.59636 46.0056C12.745 51.4783 19.7299 54.4666 27.2188 54.4666C42.1247 54.4666 54.2582 42.3331 54.2222 27.3912C54.1862 13.0975 42.7728 1.14396 28.479 0.495883Z" fill="white"/>
</svg>
