<svg width="166" height="56" viewBox="0 0 166 56" fill="none" xmlns="http://www.w3.org/2000/svg">
<path d="M27.4477 55.7333C12.2814 55.7333 0 43.4334 0 28.3269C0 13.2203 12.2814 0.837891 27.4477 0.837891C42.614 0.837891 54.8954 13.1378 54.8954 28.3269V31.051H52.1753C49.4553 31.051 46.3231 32.1241 43.3558 33.6926V39.9663C43.2734 48.5515 36.1848 55.7333 27.4477 55.7333ZM27.4477 6.20361C15.3311 6.20361 5.44008 16.1095 5.44008 28.2443C5.35766 40.4616 15.2487 50.3676 27.3653 50.3676C33.1351 50.3676 37.9157 45.6622 37.9157 39.8012V36.8295C34.1242 39.471 30.992 42.2777 29.3435 43.9287L28.5192 44.7542H27.3653C18.7106 44.8368 11.5396 37.6549 11.5396 28.9047C11.5396 20.1545 18.7106 12.9727 27.4477 12.9727C35.7727 12.9727 42.6964 19.4941 43.2734 27.6665C45.2516 26.841 47.3122 26.1806 49.2905 25.8504C48.0541 14.7887 38.74 6.20361 27.4477 6.20361ZM27.4477 18.3384C21.6779 18.3384 16.8972 23.0437 16.8972 28.9047C16.8972 34.353 21.0185 38.8932 26.3762 39.3885C28.1895 37.6549 32.5581 33.6926 37.9157 30.4731V28.9047C37.9157 23.0437 33.2175 18.3384 27.4477 18.3384Z" fill="#46525B"/>
<path d="M66.8936 36.6545V22.9755C66.8936 22.1414 67.4774 21.4741 68.3115 21.4741H77.6532C78.3205 21.4741 78.9044 22.058 78.9044 22.8087C78.9044 23.5593 78.3205 24.1432 77.6532 24.1432H69.7294V28.4804H76.6523C77.3196 28.4804 77.9035 29.0643 77.9035 29.815C77.9035 30.5656 77.3196 31.0661 76.6523 31.0661H69.7294V35.4867H77.8201C78.4873 35.4867 79.0712 36.0706 79.0712 36.8213C79.0712 37.5719 78.4873 38.1558 77.8201 38.1558H68.3115C67.4774 38.0724 66.8936 37.4885 66.8936 36.6545Z" fill="#46525B"/>
<path d="M80.8226 41.5754C80.4056 41.4086 79.9885 41.0749 79.9885 40.4077C79.9885 39.657 80.489 39.2399 81.0728 39.2399C81.323 39.2399 81.4065 39.3233 81.5733 39.3233C81.9069 39.4068 82.1571 39.4902 82.5742 39.4902C83.4083 39.4902 83.8253 39.1565 84.3257 38.1556L84.4092 37.9054L79.9051 27.5628C79.8217 27.3125 79.7383 27.0623 79.7383 26.8955C79.7383 26.0614 80.3221 25.4775 81.1562 25.4775C81.9069 25.4775 82.2405 25.8946 82.4908 26.5618L85.7437 34.9027L88.7464 26.5618C88.9966 25.978 89.3303 25.4775 90.0809 25.4775C90.8316 25.4775 91.4155 26.0614 91.4155 26.8121C91.4155 27.0623 91.3321 27.3959 91.3321 27.4793L86.9114 38.4058C85.9105 40.9915 84.7428 41.909 82.8244 41.909C81.9903 41.9924 81.4065 41.8256 80.8226 41.5754Z" fill="#46525B"/>
<path d="M97.9216 38.4062C94.4185 38.4062 91.666 35.7371 91.666 31.9003V31.8169C91.666 28.2303 94.0849 25.311 97.588 25.311C101.425 25.311 103.343 28.564 103.343 31.4833C103.343 32.3173 102.759 32.8178 102.009 32.8178H94.4185C94.7521 34.8196 96.0867 35.9873 97.9216 35.9873C99.0894 35.9873 100.007 35.5703 100.758 34.903C100.924 34.7362 101.175 34.6528 101.508 34.6528C102.092 34.6528 102.593 35.1532 102.593 35.8205C102.593 36.1541 102.426 36.4878 102.259 36.738C101.258 37.7389 99.84 38.4062 97.9216 38.4062ZM100.674 30.9828C100.507 29.1478 99.423 27.7299 97.588 27.7299C95.9198 27.7299 94.6687 29.0644 94.4185 30.9828H100.674Z" fill="#46525B"/>
<path d="M107.263 37.0713L104.01 27.5627C103.926 27.3959 103.843 27.0623 103.843 26.8121C103.843 26.1448 104.343 25.4775 105.177 25.4775C105.845 25.4775 106.345 25.978 106.512 26.6453L108.847 34.2354L111.183 26.6453C111.35 25.978 111.933 25.4775 112.601 25.4775H112.767C113.518 25.4775 114.019 25.978 114.185 26.6453L116.604 34.2354L118.94 26.6453C119.107 26.0614 119.524 25.5609 120.274 25.5609C121.025 25.5609 121.609 26.1448 121.609 26.8955C121.609 27.1457 121.525 27.3959 121.525 27.5627L118.189 37.1547C117.855 38.0722 117.355 38.4058 116.688 38.4058H116.604C115.937 38.4058 115.353 37.9888 115.103 37.1547L112.767 29.7314L110.349 37.1547C110.098 37.9888 109.515 38.4058 108.847 38.4058H108.764C108.097 38.3224 107.513 37.9054 107.263 37.0713Z" fill="#46525B"/>
<path d="M122.11 34.486C122.11 31.7336 124.112 30.399 127.115 30.399C128.449 30.399 129.45 30.6493 130.368 30.8995V30.6493C130.368 28.8977 129.283 27.8968 127.365 27.8968C126.281 27.8968 125.447 28.0636 124.696 28.3972C124.529 28.4806 124.362 28.4806 124.279 28.4806C123.612 28.4806 123.111 27.9802 123.111 27.3129C123.111 26.8125 123.445 26.312 123.862 26.1452C125.03 25.7282 126.197 25.3945 127.782 25.3945C129.617 25.3945 130.952 25.895 131.786 26.8125C132.703 27.73 133.12 29.0645 133.12 30.6493V36.8215C133.12 37.5722 132.536 38.156 131.786 38.156C130.952 38.156 130.451 37.5722 130.451 36.9883V36.4879C129.617 37.4888 128.366 38.3228 126.531 38.3228C124.112 38.4062 122.11 36.9883 122.11 34.486ZM130.451 33.5686V32.7345C129.701 32.4842 128.783 32.234 127.699 32.234C125.947 32.234 124.863 32.9847 124.863 34.3192V34.4026C124.863 35.5704 125.864 36.321 127.198 36.321C129.033 36.321 130.451 35.2367 130.451 33.5686Z" fill="#46525B"/>
<path d="M135.288 26.8959C135.288 26.0618 135.872 25.4779 136.706 25.4779C137.457 25.4779 138.124 26.1452 138.124 26.8959V28.147C138.791 26.5622 139.959 25.3945 141.21 25.3945C142.044 25.3945 142.628 25.9784 142.628 26.8125C142.628 27.5631 142.128 28.0636 141.544 28.147C139.542 28.4806 138.207 30.0654 138.207 32.9847V36.6547C138.207 37.4053 137.624 38.0726 136.789 38.0726C136.039 38.0726 135.371 37.4888 135.371 36.6547V26.8959H135.288Z" fill="#46525B"/>
<path d="M148.718 38.4062C145.214 38.4062 142.462 35.7371 142.462 31.9003V31.8169C142.462 28.2303 144.881 25.311 148.384 25.311C152.221 25.311 154.139 28.564 154.139 31.4833C154.139 32.3173 153.555 32.8178 152.805 32.8178H145.214C145.548 34.8196 146.883 35.9873 148.718 35.9873C149.885 35.9873 150.803 35.5703 151.553 34.903C151.72 34.7362 151.97 34.6528 152.304 34.6528C152.888 34.6528 153.388 35.1532 153.388 35.8205C153.388 36.1541 153.222 36.4878 153.055 36.738C151.97 37.7389 150.636 38.4062 148.718 38.4062ZM151.47 30.9828C151.303 29.1478 150.219 27.7299 148.384 27.7299C146.716 27.7299 145.465 29.0644 145.214 30.9828H151.47Z" fill="#46525B"/>
<path d="M154.973 36.9881C154.973 36.4042 155.139 36.0706 155.557 35.5701L161.979 27.98H156.224C155.557 27.98 155.056 27.4795 155.056 26.8122C155.056 26.145 155.557 25.6445 156.224 25.6445H164.231C164.982 25.6445 165.566 26.145 165.566 26.8122V26.8957C165.566 27.4795 165.399 27.8131 164.982 28.2302L158.476 35.8204H164.481C165.148 35.8204 165.649 36.3208 165.649 36.9881C165.649 37.6553 165.148 38.1558 164.481 38.1558H156.224C155.473 38.0724 154.973 37.5719 154.973 36.9881Z" fill="#46525B"/>
<path d="M133.537 46.4963C133.537 46.4129 133.537 46.3295 133.621 46.2461C133.621 46.1626 133.704 46.0792 133.787 45.9958C133.871 45.9124 133.954 45.9124 134.038 45.829C134.121 45.829 134.288 45.7456 134.371 45.7456C134.538 45.7456 134.621 45.7456 134.705 45.829C134.788 45.9124 134.872 45.9124 134.955 45.9958C135.038 46.0792 135.122 46.1626 135.122 46.2461C135.122 46.3295 135.205 46.4129 135.205 46.4963C135.205 46.5797 135.205 46.6631 135.122 46.7465C135.122 46.8299 135.038 46.9133 134.955 46.9967C134.872 47.0801 134.788 47.0801 134.705 47.1635C134.621 47.247 134.455 47.247 134.371 47.247C134.204 47.247 134.121 47.247 134.038 47.1635C133.954 47.1635 133.871 47.0801 133.787 46.9967C133.704 46.9133 133.621 46.8299 133.621 46.7465C133.537 46.6631 133.537 46.5797 133.537 46.4963Z" fill="#46525B"/>
<path d="M137.29 45.4123C137.457 45.4957 137.707 45.6625 137.874 45.7459C138.041 45.8293 138.291 45.9127 138.541 45.9962C138.791 46.0796 138.958 46.0796 139.209 46.163C139.459 46.163 139.709 46.2464 139.959 46.2464C140.293 46.2464 140.543 46.2464 140.793 46.163C141.044 46.0796 141.21 46.0796 141.377 45.9962C141.544 45.9127 141.627 45.8293 141.711 45.7459C141.794 45.6625 141.794 45.4957 141.794 45.4123C141.794 45.2455 141.711 45.0787 141.544 44.9118C141.377 44.8284 141.127 44.745 140.793 44.745C140.626 44.745 140.46 44.745 140.293 44.745C140.126 44.745 139.959 44.8284 139.792 44.8284C139.626 44.8284 139.459 44.9118 139.292 44.9118C139.125 44.9118 138.958 44.9118 138.791 44.9118C138.541 44.9118 138.291 44.9118 138.041 44.8284C137.791 44.745 137.624 44.6616 137.457 44.4948C137.29 44.328 137.123 44.1612 137.04 43.9944C136.957 43.8275 136.873 43.5773 136.873 43.3271C136.873 43.1603 136.873 42.9934 136.956 42.8266C136.956 42.6598 137.04 42.493 137.123 42.4096C137.207 42.2428 137.29 42.1594 137.457 41.9925C137.624 41.9091 137.791 41.7423 137.957 41.6589C138.124 41.5755 138.374 41.4921 138.625 41.4921C138.875 41.4921 139.209 41.4087 139.542 41.4087C139.792 41.4087 140.043 41.4087 140.293 41.4921C140.543 41.4921 140.793 41.5755 141.044 41.5755C141.294 41.6589 141.544 41.6589 141.711 41.7423C141.961 41.8257 142.128 41.9091 142.295 41.9925L141.794 42.91C141.627 42.8266 141.461 42.7432 141.294 42.7432C141.127 42.6598 140.96 42.6598 140.71 42.5764C140.46 42.493 140.293 42.493 140.126 42.493C139.959 42.493 139.709 42.493 139.459 42.493C139.125 42.493 138.875 42.493 138.708 42.5764C138.541 42.6598 138.374 42.6598 138.208 42.7432C138.124 42.8266 138.041 42.91 137.957 42.9934C137.874 43.0769 137.874 43.1603 137.874 43.2437C137.874 43.4105 137.957 43.5773 138.124 43.6607C138.291 43.7441 138.458 43.8275 138.791 43.8275C138.875 43.8275 139.042 43.8275 139.209 43.8275C139.375 43.8275 139.542 43.8275 139.709 43.7441C139.876 43.7441 140.043 43.7441 140.209 43.6607C140.376 43.6607 140.543 43.6607 140.71 43.6607C141.044 43.6607 141.294 43.6607 141.544 43.7441C141.794 43.8275 142.044 43.9109 142.211 44.0778C142.378 44.2446 142.545 44.4114 142.628 44.5782C142.712 44.745 142.795 44.9953 142.795 45.2455C142.795 45.5791 142.712 45.8293 142.545 46.0796C142.378 46.3298 142.211 46.58 141.878 46.7468C141.544 46.9136 141.294 47.0805 140.877 47.1639C140.46 47.2473 140.043 47.3307 139.626 47.3307C139.292 47.3307 139.042 47.3307 138.708 47.2473C138.374 47.1639 138.124 47.1639 137.874 47.0805C137.624 46.9971 137.374 46.9136 137.123 46.8302C136.873 46.7468 136.623 46.58 136.456 46.4966L137.29 45.4123Z" fill="#46525B"/>
<path d="M144.547 41.4922H145.631V42.9935H149.051V41.4922H150.135V47.164H149.051V43.9944H145.631V47.164H144.547V41.4922Z" fill="#46525B"/>
<path d="M151.803 44.2445C151.803 43.8274 151.886 43.4104 152.053 43.0768C152.22 42.7431 152.387 42.4095 152.72 42.1593C152.97 41.9091 153.304 41.7422 153.721 41.5754C154.138 41.4086 154.555 41.3252 154.972 41.3252C155.473 41.3252 155.89 41.4086 156.223 41.5754C156.64 41.7422 156.974 41.9091 157.224 42.1593C157.475 42.4095 157.725 42.7431 157.892 43.0768C158.058 43.4104 158.142 43.8274 158.142 44.2445C158.142 44.6615 158.058 45.0786 157.892 45.4122C157.725 45.7458 157.558 46.0795 157.224 46.3297C156.974 46.5799 156.64 46.8302 156.223 46.9136C155.806 47.0804 155.389 47.1638 154.972 47.1638C154.472 47.1638 154.055 47.0804 153.721 46.9136C153.304 46.7467 152.97 46.5799 152.72 46.3297C152.47 46.0795 152.22 45.7458 152.053 45.4122C151.886 45.0786 151.803 44.7449 151.803 44.2445ZM152.97 44.2445C152.97 44.5781 153.054 44.8284 153.137 44.9952C153.221 45.2454 153.387 45.4122 153.554 45.579C153.721 45.7458 153.971 45.9127 154.222 45.9961C154.472 46.0795 154.722 46.1629 155.056 46.1629C155.389 46.1629 155.64 46.0795 155.89 45.9961C156.14 45.9127 156.39 45.7458 156.557 45.579C156.724 45.4122 156.891 45.2454 156.974 44.9952C157.057 44.7449 157.141 44.4947 157.141 44.2445C157.141 43.9943 157.057 43.6606 156.974 43.4938C156.891 43.2436 156.724 43.0768 156.557 42.91C156.39 42.7431 156.14 42.6597 155.89 42.5763C155.64 42.4929 155.389 42.4095 155.056 42.4095C154.722 42.4095 154.472 42.4929 154.222 42.5763C153.971 42.6597 153.721 42.7431 153.554 42.91C153.387 43.0768 153.221 43.2436 153.137 43.4938C152.97 43.744 152.97 43.9943 152.97 44.2445Z" fill="#46525B"/>
<path d="M159.728 41.4922H162.647C163.064 41.4922 163.398 41.5756 163.731 41.659C164.065 41.7424 164.315 41.9092 164.482 42.076C164.649 42.2429 164.815 42.4931 164.899 42.7433C164.982 42.9935 165.066 43.3272 165.066 43.5774C165.066 43.911 164.982 44.1613 164.899 44.4115C164.815 44.6617 164.649 44.9119 164.482 45.0787C164.315 45.2456 163.981 45.4124 163.731 45.4958C163.398 45.5792 163.064 45.6626 162.647 45.6626H160.895V47.164H159.811V41.4922H159.728ZM162.647 44.6617C162.897 44.6617 163.064 44.6617 163.231 44.5783C163.398 44.4949 163.481 44.4115 163.648 44.3281C163.731 44.2447 163.815 44.0778 163.898 43.9944C163.981 43.8276 163.981 43.7442 163.981 43.5774C163.981 43.2438 163.898 42.9935 163.648 42.8267C163.398 42.6599 163.147 42.5765 162.73 42.5765H160.895V44.7451H162.647V44.6617Z" fill="#46525B"/>
</svg>
