<svg width="49" height="56" viewBox="0 0 49 56" fill="none" xmlns="http://www.w3.org/2000/svg">
<path d="M48.1414 7.38446L24.9601 0.267578L1.49023 7.38446L5.00109 16.2806L24.8639 18.0598L44.4862 16.2806L48.1414 7.38446Z" fill="#46525B"/>
<path d="M22.8915 20.3681L4.80821 18.6851L0.816406 33.1112L5.52962 37.8237C6.20293 38.4969 7.35719 38.2084 7.59766 37.2947L10.4833 26.9079L15.8217 27.3888V46.4313C15.8217 47.5373 16.2546 48.5952 17.0241 49.3646L23.4206 55.7602V20.9932C23.4206 20.6566 23.1801 20.3681 22.8915 20.3681Z" fill="#46525B"/>
<path d="M26.3537 20.3681L44.389 18.6851L48.3808 33.1593L43.6676 37.8718C42.9942 38.545 41.84 38.2565 41.5995 37.3428L38.7139 26.956L33.3755 27.4369V46.4794C33.3755 47.5854 32.9426 48.6433 32.1731 49.4127L25.7285 55.8563V20.9932C25.7766 20.6566 26.0171 20.3681 26.3537 20.3681Z" fill="#46525B"/>
</svg>
