<svg width="47" height="55" viewBox="0 0 47 55" fill="none" xmlns="http://www.w3.org/2000/svg">
<path d="M46.0646 7.39131L23.5004 0.463867L0.655273 7.39131L4.07268 16.0506L23.4068 17.7825L42.5068 16.0506L46.0646 7.39131Z" fill="white"/>
<path d="M21.4875 20.0294L3.88555 18.3911L0 32.4332L4.58775 37.0203C5.24314 37.6756 6.36668 37.3948 6.60075 36.5054L9.40957 26.3951L14.6059 26.8632V45.3988C14.6059 46.4753 15.0272 47.5051 15.7762 48.254L22.0025 54.4793V20.6379C22.0025 20.3102 21.7684 20.0294 21.4875 20.0294Z" fill="white"/>
<path d="M24.8576 20.0294L42.4128 18.3911L46.2983 32.48L41.7106 37.0671C41.0552 37.7224 39.9316 37.4416 39.6976 36.5522L36.8887 26.4419L31.6924 26.91V45.4456C31.6924 46.5221 31.2711 47.5519 30.5221 48.3008L24.249 54.5729V20.6379C24.2958 20.3102 24.5299 20.0294 24.8576 20.0294Z" fill="white"/>
</svg>
