<svg width="187" height="55" viewBox="0 0 187 55" fill="none" xmlns="http://www.w3.org/2000/svg">
<path d="M72.4917 8.41434C71.096 7.37508 68.1589 5.92012 64.3051 5.92012C61.9929 5.92012 59.9098 6.77231 59.9098 8.76769C59.9098 10.8254 62.9928 10.9709 66.0133 11.2203C70.2628 11.5113 76.9079 12.0102 76.9079 18.412C76.9079 24.1488 72.1167 26.3936 66.409 26.3936C60.3681 26.3936 56.306 24.0033 53.5771 21.8L56.4727 18.3081C58.4308 19.867 61.7637 22.2365 66.4715 22.2365C69.4295 22.2365 71.8043 21.0933 71.8043 18.9109C71.8043 16.6661 69.4087 16.1672 65.9091 15.8762C60.8055 15.5645 54.8062 14.9825 54.8062 9.05868C54.8062 3.42589 60.0556 1.67993 64.4509 1.67993C69.3046 1.67993 73.4083 3.46746 75.4289 4.8185L72.4917 8.41434Z" fill="white"/>
<path d="M76.637 8.31037H79.6784V3.38428H84.4278V8.31037H88.719V11.8439H84.4278V20.8646C84.4278 21.9247 85.1153 22.4028 86.3235 22.4028C87.0109 22.4028 87.9275 22.2573 88.5316 22.1533L88.8857 25.7284C88.1983 26.2688 86.0318 26.4143 85.0944 26.4143C82.5322 26.4143 79.6575 25.1256 79.6575 21.2388V11.8231H76.6162V8.31037H76.637Z" fill="white"/>
<path d="M107.363 23.6708C105.426 25.1257 102.281 26.2274 99.1559 26.2274C93.2607 26.2274 90.0527 22.0287 90.0527 17.1442C90.0527 11.8648 93.9065 7.72852 99.3017 7.72852C103.551 7.72852 108.051 10.2851 108.051 16.7077C108.051 16.9987 108.051 17.3521 107.988 18.1627H94.7397C95.1355 20.6154 96.8436 22.4029 99.7808 22.4029C101.676 22.4029 103.739 21.6546 105.134 20.6154L107.363 23.6708ZM94.823 15.0033H103.218C103.176 12.5507 101.072 11.3659 99.26 11.3659C96.7187 11.3659 95.3646 13.0495 94.823 15.0033Z" fill="white"/>
<path d="M114.653 8.31047C114.758 8.99638 114.799 9.76543 114.841 10.4929C115.903 9.20423 117.841 7.74927 120.278 7.74927C124.923 7.74927 128.735 11.3451 128.735 17.0195C128.735 22.5068 124.881 26.2065 120.278 26.2065C118.528 26.2065 116.778 25.4998 115.32 23.9617V33.0865H110.571V13.2158C110.571 11.7816 110.571 10.3682 110.175 8.28968H114.653V8.31047ZM123.59 16.9987C123.59 13.7562 121.778 11.7608 119.549 11.7608C117.445 11.7608 115.945 13.0703 115.341 13.7146V20.3035C116.632 21.4883 118.091 22.195 119.549 22.195C121.799 22.195 123.59 20.0957 123.59 16.9987Z" fill="white"/>
<path d="M131.298 25.7077V0.744629H136.047V10.1188C137.297 8.87165 138.984 7.72846 141.088 7.72846C145.046 7.72846 147.734 10.3682 147.734 14.0056V25.7077H142.942V14.1927C142.942 12.8832 141.734 11.7608 140.005 11.7608C138.318 11.7608 136.86 12.9456 136.047 14.0056V25.7077H131.298Z" fill="white"/>
<path d="M167.397 23.6708C165.46 25.1257 162.315 26.2274 159.19 26.2274C153.295 26.2274 150.087 22.0287 150.087 17.1442C150.087 11.8648 153.941 7.72852 159.336 7.72852C163.585 7.72852 168.085 10.2851 168.085 16.7077C168.085 16.9987 168.085 17.3521 168.022 18.1627H154.774C155.17 20.6154 156.878 22.4029 159.815 22.4029C161.711 22.4029 163.773 21.6546 165.169 20.6154L167.397 23.6708ZM154.857 15.0033H163.252C163.21 12.5507 161.107 11.3659 159.294 11.3659C156.753 11.3659 155.378 13.0495 154.857 15.0033Z" fill="white"/>
<path d="M180.647 7.72852C184.188 7.72852 187 10.3682 187 14.0057V25.7077H182.209V14.1927C182.209 12.8833 181.022 11.7608 179.313 11.7608C177.605 11.7608 176.314 12.904 175.314 14.0057V25.7077H170.564V13.2574C170.564 11.8024 170.46 10.2227 170.064 8.3105H174.418C174.564 8.99641 174.71 9.76547 174.772 10.5969C176.105 9.0172 177.939 7.72852 180.647 7.72852Z" fill="white"/>
<path d="M69.7218 44.1856H61.1186V49.7561H76.2419V54.1418H55.9941V30.8623H75.4295V35.2896H61.0977V39.8207H69.701V44.1856H69.7218Z" fill="white"/>
<path d="M91.5736 41.338C89.6363 40.4442 87.1366 39.7791 85.2826 39.7791C83.4911 39.7791 82.3871 40.3403 82.3871 41.4627C82.3871 42.9176 84.3244 43.0216 85.8242 43.1047C88.9697 43.2502 94.2191 43.6036 94.2191 48.6336C94.2191 52.7698 90.6154 54.7652 85.9284 54.7652C81.8872 54.7652 78.8875 53.2687 77.0752 52.1255L78.7625 48.7375C80.4498 49.7768 83.262 51.0862 86.0117 51.0862C88.2198 51.0862 89.4696 50.2756 89.4696 49.0493C89.4696 47.4073 87.3241 47.241 85.7826 47.1163C81.9913 46.9084 77.6793 46.659 77.6793 41.9407C77.6793 37.5135 81.5747 36.1001 85.116 36.1001C88.2615 36.1001 91.8027 37.2433 93.2609 37.95L91.5736 41.338Z" fill="white"/>
<path d="M109.697 41.338C107.759 40.4442 105.26 39.7791 103.406 39.7791C101.614 39.7791 100.51 40.3403 100.51 41.4627C100.51 42.9176 102.447 43.0216 103.947 43.1047C107.093 43.2502 112.342 43.6036 112.342 48.6336C112.342 52.7698 108.738 54.7652 104.051 54.7652C100.01 54.7652 97.0105 53.2687 95.1982 52.1255L96.8856 48.7375C98.5729 49.7768 101.385 51.0862 104.135 51.0862C106.343 51.0862 107.593 50.2756 107.593 49.0493C107.593 47.4073 105.447 47.241 103.906 47.1163C100.114 46.9084 95.8023 46.659 95.8023 41.9407C95.8023 37.5135 99.6977 36.1001 103.239 36.1001C106.384 36.1001 109.926 37.2433 111.384 37.95L109.697 41.338Z" fill="white"/>
<path d="M117.049 28.8669C118.653 28.8669 119.903 30.0725 119.903 31.4651C119.903 32.8577 118.653 34.0009 117.049 34.0009C115.446 34.0009 114.237 32.8577 114.237 31.4651C114.237 30.0309 115.446 28.8669 117.049 28.8669ZM114.696 54.1418V36.7445H119.445V54.1418H114.696Z" fill="white"/>
<path d="M139.318 52.1049C137.381 53.5598 134.236 54.6614 131.111 54.6614C125.216 54.6614 122.008 50.4628 122.008 45.5783C122.008 40.2989 125.862 36.1626 131.257 36.1626C135.506 36.1626 140.006 38.7192 140.006 45.1418C140.006 45.4328 140.006 45.7862 139.943 46.5968H126.653C127.049 49.0494 128.757 50.837 131.694 50.837C133.59 50.837 135.652 50.0887 137.048 49.0494L139.318 52.1049ZM126.778 43.4374H135.173C135.131 40.9848 133.027 39.8 131.215 39.8C128.653 39.8 127.299 41.4836 126.778 43.4374Z" fill="white"/>
<path d="M152.567 36.1626C156.108 36.1626 158.92 38.8023 158.92 42.4397V54.1418H154.129V42.6268C154.129 41.3173 152.941 40.1949 151.233 40.1949C149.525 40.1949 148.234 41.3381 147.234 42.4397V54.1418H142.484V41.6915C142.484 40.2365 142.38 38.6568 141.984 36.7446H146.338C146.484 37.4305 146.63 38.1996 146.692 39.031C148.025 37.4513 149.859 36.1626 152.567 36.1626Z" fill="white"/>
<path d="M0 2.30347V20.7815H43.5785V26.934H0.062493V33.1072H49.7861V14.6083H6.18681V8.47668H49.9528V2.30347H0Z" fill="white"/>
<path d="M0.125 53.5805H6.31181V44.539H21.9142V53.5805H28.101V44.539H43.7035V53.5805H49.8903V38.345H0.125V53.5805Z" fill="white"/>
</svg>
