<svg width="194" height="55" viewBox="0 0 194 55" fill="none" xmlns="http://www.w3.org/2000/svg">
<g clip-path="url(#clip0_377_929)">
<path d="M75.2056 7.81176C73.7577 6.75325 70.7106 5.27134 66.7126 5.27134C64.3138 5.27134 62.1527 6.13932 62.1527 8.17165C62.1527 10.2675 65.3511 10.4157 68.4846 10.6697C72.8932 10.9661 79.7871 11.4742 79.7871 17.9946C79.7871 23.8375 74.8166 26.1239 68.8952 26.1239C62.6281 26.1239 58.414 23.6894 55.583 21.4453L58.5869 17.8887C60.6183 19.4765 64.076 21.8899 68.9601 21.8899C72.0288 21.8899 74.4924 20.7255 74.4924 18.5027C74.4924 16.2163 72.0072 15.7082 68.3766 15.4118C63.0819 15.0943 56.858 14.5015 56.858 8.46803C56.858 2.73093 62.304 0.952637 66.8638 0.952637C71.8991 0.952637 76.1565 2.77327 78.2527 4.14933L75.2056 7.81176Z" fill="#46525B"/>
<path d="M79.506 7.7058H82.6612V2.68848H87.5884V7.7058H92.0402V11.3047H87.5884V20.4926C87.5884 21.5722 88.3016 22.0591 89.555 22.0591C90.2682 22.0591 91.219 21.911 91.8457 21.8051L92.2131 25.4464C91.5 25.9968 89.2525 26.145 88.28 26.145C85.6218 26.145 82.6396 24.8324 82.6396 20.8736V11.2835H79.4844V7.7058H79.506Z" fill="#46525B"/>
<path d="M111.382 23.3508C109.372 24.8327 106.109 25.9547 102.867 25.9547C96.7514 25.9547 93.4233 21.6783 93.4233 16.7034C93.4233 11.3261 97.4213 7.11328 103.019 7.11328C107.427 7.11328 112.095 9.71721 112.095 16.2588C112.095 16.5552 112.095 16.9151 112.03 17.7407H98.2858C98.6964 20.2388 100.468 22.0594 103.516 22.0594C105.482 22.0594 107.622 21.2973 109.07 20.2388L111.382 23.3508ZM98.3722 14.5228H107.081C107.038 12.0248 104.855 10.8181 102.975 10.8181C100.339 10.8181 98.9341 12.5328 98.3722 14.5228Z" fill="#46525B"/>
<path d="M118.946 7.70587C119.054 8.40449 119.097 9.18778 119.14 9.92874C120.242 8.61619 122.252 7.13428 124.781 7.13428C129.6 7.13428 133.555 10.7967 133.555 16.5762C133.555 22.1651 129.557 25.9334 124.781 25.9334C122.965 25.9334 121.15 25.2136 119.637 23.647V32.9407H114.71V12.702C114.71 11.2413 114.71 9.80171 114.299 7.6847H118.946V7.70587ZM128.217 16.555C128.217 13.2524 126.337 11.2201 124.024 11.2201C121.841 11.2201 120.286 12.5538 119.659 13.2101V19.921C120.999 21.1277 122.511 21.8475 124.024 21.8475C126.358 21.8475 128.217 19.7093 128.217 16.555Z" fill="#46525B"/>
<path d="M136.213 25.4253V0H141.14V9.54773C142.437 8.27752 144.187 7.11316 146.37 7.11316C150.476 7.11316 153.264 9.80177 153.264 13.5065V25.4253H148.293V13.6971C148.293 12.3634 147.04 11.2202 145.246 11.2202C143.496 11.2202 141.983 12.4269 141.14 13.5065V25.4253H136.213Z" fill="#46525B"/>
<path d="M173.664 23.3508C171.654 24.8327 168.391 25.9547 165.149 25.9547C159.034 25.9547 155.706 21.6783 155.706 16.7034C155.706 11.3261 159.704 7.11328 165.301 7.11328C169.709 7.11328 174.377 9.71721 174.377 16.2588C174.377 16.5552 174.377 16.9151 174.312 17.7407H160.568C160.979 20.2388 162.751 22.0594 165.798 22.0594C167.764 22.0594 169.904 21.2973 171.352 20.2388L173.664 23.3508ZM160.654 14.5228H169.364C169.32 12.0248 167.138 10.8181 165.258 10.8181C162.621 10.8181 161.195 12.5328 160.654 14.5228Z" fill="#46525B"/>
<path d="M187.409 7.11328C191.083 7.11328 194 9.80189 194 13.5067V25.4254H189.03V13.6972C189.03 12.3635 187.798 11.2203 186.026 11.2203C184.254 11.2203 182.914 12.3846 181.877 13.5067V25.4254H176.949V12.7445C176.949 11.2626 176.841 9.6537 176.431 7.70605H180.947C181.099 8.40466 181.25 9.18795 181.315 10.0348C182.698 8.42583 184.6 7.11328 187.409 7.11328Z" fill="#46525B"/>
<path d="M72.3314 44.2453H63.4061V49.9189H79.0955V54.3858H58.0898V30.6753H78.2527V35.1845H63.3845V39.7996H72.3097V44.2453H72.3314Z" fill="#46525B"/>
<path d="M95.0011 41.3451C92.9913 40.4348 90.398 39.7574 88.4746 39.7574C86.6161 39.7574 85.4707 40.329 85.4707 41.4721C85.4707 42.9541 87.4805 43.0599 89.0365 43.1446C92.2997 43.2928 97.7456 43.6527 97.7456 48.7758C97.7456 52.9887 94.007 55.021 89.1445 55.021C84.9521 55.021 81.8401 53.4968 79.96 52.3324L81.7104 48.8817C83.4609 49.9402 86.3784 51.2739 89.231 51.2739C91.5217 51.2739 92.8184 50.4483 92.8184 49.1992C92.8184 47.5268 90.5925 47.3574 88.9933 47.2304C85.0601 47.0187 80.5867 46.7647 80.5867 41.9591C80.5867 37.4498 84.6279 36.0103 88.3017 36.0103C91.565 36.0103 95.2388 37.1746 96.7515 37.8944L95.0011 41.3451Z" fill="#46525B"/>
<path d="M113.802 41.3451C111.793 40.4348 109.199 39.7574 107.276 39.7574C105.417 39.7574 104.272 40.329 104.272 41.4721C104.272 42.9541 106.282 43.0599 107.838 43.1446C111.101 43.2928 116.547 43.6527 116.547 48.7758C116.547 52.9887 112.808 55.021 107.946 55.021C103.753 55.021 100.641 53.4968 98.7612 52.3324L100.512 48.8817C102.262 49.9402 105.18 51.2739 108.032 51.2739C110.323 51.2739 111.62 50.4483 111.62 49.1992C111.62 47.5268 109.394 47.3574 107.795 47.2304C103.861 47.0187 99.3879 46.7647 99.3879 41.9591C99.3879 37.4498 103.429 36.0103 107.103 36.0103C110.366 36.0103 114.04 37.1746 115.553 37.8944L113.802 41.3451Z" fill="#46525B"/>
<path d="M121.431 28.6431C123.095 28.6431 124.392 29.8709 124.392 31.2893C124.392 32.7077 123.095 33.8721 121.431 33.8721C119.767 33.8721 118.514 32.7077 118.514 31.2893C118.514 29.8286 119.767 28.6431 121.431 28.6431ZM118.989 54.3859V36.6665H123.916V54.3859H118.989Z" fill="#46525B"/>
<path d="M144.533 52.3112C142.523 53.7931 139.26 54.9151 136.018 54.9151C129.902 54.9151 126.574 50.6388 126.574 45.6638C126.574 40.2866 130.572 36.0737 136.169 36.0737C140.578 36.0737 145.246 38.6777 145.246 45.2192C145.246 45.5156 145.246 45.8755 145.181 46.7011H131.393C131.804 49.1992 133.576 51.0198 136.623 51.0198C138.59 51.0198 140.729 50.2577 142.177 49.1992L144.533 52.3112ZM131.523 43.4833H140.232C140.189 40.9852 138.006 39.7785 136.126 39.7785C133.468 39.7785 132.063 41.4933 131.523 43.4833Z" fill="#46525B"/>
<path d="M158.278 36.0737C161.951 36.0737 164.869 38.7623 164.869 42.4671V54.3859H159.898V42.6576C159.898 41.3239 158.667 40.1807 156.895 40.1807C155.122 40.1807 153.783 41.3451 152.745 42.4671V54.3859H147.818V41.705C147.818 40.2231 147.71 38.6141 147.299 36.6665H151.816C151.967 37.3651 152.119 38.1484 152.183 38.9952C153.566 37.3863 155.468 36.0737 158.278 36.0737Z" fill="#46525B"/>
<path d="M0 1.58789V20.4081H45.2098V26.6745H0.0648324V32.962H51.6498V14.1206H6.4184V7.87542H51.8227V1.58789H0Z" fill="#46525B"/>
<path d="M0.129883 53.8146H6.54829V44.6056H22.7348V53.8146H29.1532V44.6056H45.3396V53.8146H51.758V38.2969H0.129883V53.8146Z" fill="#46525B"/>
</g>
<defs>
<clipPath id="clip0_377_929">
<rect width="194" height="55" fill="white"/>
</clipPath>
</defs>
</svg>
