<?xml version="1.0" encoding="utf-8"?>
<!-- Generator: Adobe Illustrator 27.1.1, SVG Export Plug-In . SVG Version: 6.00 Build 0)  -->
<svg version="1.1" id="Layer_1" xmlns="http://www.w3.org/2000/svg" xmlns:xlink="http://www.w3.org/1999/xlink" x="0px" y="0px"
	 viewBox="0 0 244 283.6" style="enable-background:new 0 0 244 283.6;" xml:space="preserve">
<style type="text/css">
	.st0{fill:url(#SVGID_1_);}
	.st1{fill:url(#SVGID_00000167374007788223971790000013810529786498843827_);}
</style>
<linearGradient id="SVGID_1_" gradientUnits="userSpaceOnUse" x1="-145.0453" y1="449.4557" x2="169.2907" y2="-126.0743" gradientTransform="matrix(1 0 0 -1 0 347.8898)">
	<stop  offset="0" style="stop-color:#03FFBA"/>
	<stop  offset="6.396530e-03" style="stop-color:#03FEBA"/>
	<stop  offset="0.1953" style="stop-color:#04DCBB"/>
	<stop  offset="0.3881" style="stop-color:#06C1BB"/>
	<stop  offset="0.5842" style="stop-color:#06AEBC"/>
	<stop  offset="0.7856" style="stop-color:#07A3BC"/>
	<stop  offset="1" style="stop-color:#079FBC"/>
</linearGradient>
<path class="st0" d="M13.3,161.4c-6,3.6-10.6,9.4-12.3,16c-4,14.7,4.9,28.5,18.7,33c5.3,1.7,10.9,3.4,16.4,4.7
	c-1.7-2.6-3.2-5.1-4.9-7.7C22.9,193.5,16.9,178,13.3,161.4z"/>
<linearGradient id="SVGID_00000044170076740483304390000012930912970388938634_" gradientUnits="userSpaceOnUse" x1="-22.8049" y1="516.2202" x2="291.532" y2="-59.3098" gradientTransform="matrix(1 0 0 -1 0 347.8898)">
	<stop  offset="0" style="stop-color:#03FFBA"/>
	<stop  offset="6.396530e-03" style="stop-color:#03FEBA"/>
	<stop  offset="0.1953" style="stop-color:#04DCBB"/>
	<stop  offset="0.3881" style="stop-color:#06C1BB"/>
	<stop  offset="0.5842" style="stop-color:#06AEBC"/>
	<stop  offset="0.7856" style="stop-color:#07A3BC"/>
	<stop  offset="1" style="stop-color:#079FBC"/>
</linearGradient>
<path style="fill:url(#SVGID_00000044170076740483304390000012930912970388938634_);" d="M231.1,42c-1.3-2.1-3-3.8-4.7-5.5
	c-1.1-1.7-2.1-3.4-3.6-4.9c-29.2-33.2-81.5-39-121.1-23c-24.3,9.6-43.8,24.9-59,46.2C27.2,76.2,20.8,104.1,21,130.3
	c0.2,26,7.2,52.1,20.6,74.3c11.7,19.6,28.1,35.1,46.4,48.3c18.3,13.4,40.7,24.5,62.8,29.8c14.3,3.6,28.9-4.5,33-18.7
	c3.8-13.8-4.5-29.4-18.7-33c-6-1.5-11.7-3.6-17.5-6c0,0-0.2,0-0.2-0.2c-1.5-0.6-3-1.3-4.5-2.1c-3.6-1.7-7-3.6-10.6-5.5
	c-3.4-1.9-7-4-10.2-6.2c-1.7-1.1-3.4-2.3-5.3-3.6c-0.9-0.6-3.2-2.3-4.3-3.2c-6.6-5.3-12.6-11.3-17.9-17.7c-0.4-0.4-0.9-1.1-1.3-1.5
	c-1.3-1.9-2.8-3.8-3.8-5.7c-3-4.5-5.5-9.2-7.7-14c-0.4-0.9-0.6-1.7-1.1-2.6c-0.9-2.6-1.7-5.1-2.6-7.9c-0.9-2.8-1.5-5.5-1.9-8.1
	c-0.2-1.5-0.6-2.8-0.9-4.3v-0.2c-0.6-6.2-0.9-12.3-0.6-18.5c0-2.8,0.2-5.3,0.6-8.1c0.2-1.7,0.6-3.4,1.1-5.1c0.9-4.5,2.3-8.7,3.8-13
	c0.2-0.4,0.4-1.1,0.6-1.5c0.9-1.7,1.7-3.4,2.6-5.1c1.9-3.4,4-6.8,6.2-10c0.2-0.2,0.4-0.6,0.6-0.9c1.5-1.9,3.2-3.6,4.9-5.3
	c1.9-1.9,3.8-3.8,6-5.5c0.9-0.6,2.3-1.7,3.2-2.3c1.7-1.1,3.2-2.1,4.9-3.2c3-1.7,6-3.2,8.9-4.7c0.4-0.2,0.9-0.2,1.1-0.4
	c2.1-0.9,4.3-1.5,6.4-2.1c3.6-1.1,7.2-1.9,11.1-2.6c0.2,0,0.4,0,0.6-0.2c1.5-0.2,3-0.2,4.3-0.4c3.6-0.2,7.2-0.2,10.9,0
	c0.6,0,1.3,0,1.7,0.2c1.3,0.2,3,0.4,3.8,0.6c3.4,0.6,6.8,1.7,10,2.8c0.4,0.2,0.9,0.2,1.3,0.4c1.3,0.6,2.3,1.3,3.6,1.9
	c1.5,0.9,5.3,3.6,6.8,4.5c1.9,1.7,3.6,3.4,5.1,5.3c0.2,0.2,0.2,0.2,0.4,0.4c0.6,1.1,1.5,2.3,2.1,3.4c0.2,0.4,0.6,1.1,0.9,1.7
	c0.9,2.6,1.5,5.1,1.9,7.7c0.2,1.5,0.2,2.8,0.2,4.3c0,1.7,0,3.6-0.2,5.3c0,0.9-0.2,1.9-0.2,3.2c-0.4,2.8-1.3,5.5-1.9,8.3
	c-0.6,1.9-1.1,3.8-1.9,5.5c-0.2,0.6-0.4,1.3-0.9,2.1c-1.5,3.4-3.4,6.8-5.3,10c-1.1,1.9-2.3,3.6-3.4,5.3c-0.6,0.9-2.1,3-3.2,4.3
	c-4.5,5.3-9.6,10.4-15.1,14.9c-1.1,0.9-3.2,2.3-4,3c-1.9,1.3-4,2.8-6.2,3.8c-4.3,2.8-8.9,5.1-13.6,7.2c-0.9,0.4-1.7,0.6-2.6,1.1
	c-2.6,0.9-4.9,1.7-7.5,2.6c-5.7,1.7-11.5,3-17.2,4c-0.4,0-0.6,0.2-1.1,0.2c-0.6,0-1.3,0.2-1.7,0.2c-3,0.2-5.7,0.4-8.7,0.6
	c-0.2,0-0.4,0-0.6,0c0.6,1.1,1.3,2.1,1.9,3c1.5,2.3,2.8,4,3.8,5.7l0.6,0.6c2.8,3.4,5.5,6.4,8.1,8.9c3.4,3.2,6.4,6.2,9.6,8.5l0.6,0.4
	c1.5,1.1,2.6,1.9,3.8,2.8c6.2,4.3,12.3,8.1,18.7,11.3c1.7,0.9,3.2,1.7,4.9,2.3c10.9-3.8,21.3-8.9,31.3-15.3
	c36.4-23.2,63.2-62.2,65.3-105.8C244.9,74.3,240.6,56,231.1,42z M93.4,185.8C94.4,187.3,97.2,190.5,93.4,185.8L93.4,185.8z"/>
</svg>
