<?xml version="1.0" encoding="UTF-8"?>
<svg id="Layer_1" data-name="Layer 1" xmlns="http://www.w3.org/2000/svg" viewBox="0 0 132.55 132.55">
  <defs>
    <style>
      .cls-1 {
        fill: #47525b;
        font-family: Quicksand-Bold, Quicksand;
        font-size: 10px;
        font-weight: 700;
      }
    </style>
  </defs>
  <text class="cls-1" transform="translate(103.72 29.07) rotate(46.69)"><tspan x="0" y="0"> </tspan></text>
  <text class="cls-1" transform="translate(108.43 34.31) rotate(56.88)"><tspan x="0" y="0">O</tspan></text>
  <text class="cls-1" transform="translate(114.45 44.42) rotate(69.4)"><tspan x="0" y="0">U</tspan></text>
  <text class="cls-1" transform="translate(117.97 55.09) rotate(81.58)"><tspan x="0" y="0">R</tspan></text>
  <text class="cls-1" transform="translate(119.06 66.13) rotate(91.34)"><tspan x="0" y="0"> </tspan></text>
  <text class="cls-1" transform="translate(118.68 73.17) rotate(100.67)"><tspan x="0" y="0">S</tspan></text>
  <text class="cls-1" transform="translate(116.43 83.1) rotate(112.46)"><tspan x="0" y="0">H</tspan></text>
  <text class="cls-1" transform="translate(111.69 93.42) rotate(125.03)"><tspan x="0" y="0">O</tspan></text>
  <text class="cls-1" transform="translate(104.66 102.79) rotate(138.65)"><tspan x="0" y="0">W</tspan></text>
  <text class="cls-1" transform="translate(94.07 111.27) rotate(151.97)"><tspan x="0" y="0">R</tspan></text>
  <text class="cls-1" transform="translate(84.09 116.04) rotate(163.43)"><tspan x="0" y="0">E</tspan></text>
  <text class="cls-1" transform="translate(74.46 118.49) rotate(174.27)"><tspan x="0" y="0">E</tspan></text>
  <text class="cls-1" transform="translate(64.51 119.09) rotate(-175.11)"><tspan x="0" y="0">L</tspan></text>
  <text class="cls-1" transform="translate(54.72 117.79) rotate(-165.88)"><tspan x="0" y="0"> </tspan></text>
  <text class="cls-1" transform="translate(47.94 115.85) rotate(-156.59)"><tspan x="0" y="0">2</tspan></text>
  <text class="cls-1" transform="translate(39.01 111.56) rotate(-145.57)"><tspan x="0" y="0">0</tspan></text>
  <text class="cls-1" transform="translate(30.71 105.36) rotate(-134.62)"><tspan x="0" y="0">2</tspan></text>
  <text class="cls-1" transform="translate(24.05 98.03) rotate(-124.09)"><tspan x="0" y="0">3</tspan></text>
  <text class="cls-1" transform="translate(19.02 89.82) rotate(-115.01)"><tspan x="0" y="0"> </tspan></text>
  <text class="cls-1" transform="translate(16.29 83.27) rotate(-107.41)"><tspan x="0" y="0">|</tspan></text>
  <text class="cls-1" transform="translate(14.52 76.71) rotate(-99.81)"><tspan x="0" y="0"> </tspan></text>
  <text class="cls-1" transform="translate(13.42 69.76) rotate(-88.69)"><tspan x="0" y="0">W</tspan></text>
  <text class="cls-1" transform="translate(14.33 56.43) rotate(-75.84)"><tspan x="0" y="0">A</tspan></text>
  <text class="cls-1" transform="translate(17.14 46.74) rotate(-64.88)"><tspan x="0" y="0">T</tspan></text>
  <text class="cls-1" transform="translate(21.85 37.62) rotate(-53.72)"><tspan x="0" y="0">C</tspan></text>
  <text class="cls-1" transform="translate(28.36 29.41) rotate(-41.93)"><tspan x="0" y="0">H</tspan></text>
  <text class="cls-1" transform="translate(37.22 22.2) rotate(-31.93)"><tspan x="0" y="0"> </tspan></text>
  <text class="cls-1" transform="translate(43.4 18.7) rotate(-24.37)"><tspan x="0" y="0">|</tspan></text>
</svg>