<?xml version="1.0" encoding="UTF-8"?>
<svg id="Layer_1" data-name="Layer 1" xmlns="http://www.w3.org/2000/svg" viewBox="0 0 122.44 113.99">
  <defs>
    <style>
      .cls-1 {
        fill: #fff;
        font-family: Quicksand-Bold, Quicksand;
        font-size: 10px;
        font-weight: 700;
      }
    </style>
  </defs>
  <text class="cls-1" transform="translate(98.76 15.37) rotate(50.17)"><tspan x="0" y="0">W</tspan></text>
  <text class="cls-1" transform="translate(106.83 26) rotate(63.01)"><tspan x="0" y="0">A</tspan></text>
  <text class="cls-1" transform="translate(111.09 35.16) rotate(73.97)"><tspan x="0" y="0">T</tspan></text>
  <text class="cls-1" transform="translate(113.55 45.14) rotate(85.17)"><tspan x="0" y="0">C</tspan></text>
  <text class="cls-1" transform="translate(114.05 55.59) rotate(96.88)"><tspan x="0" y="0">H</tspan></text>
  <text class="cls-1" transform="translate(112.12 66.85) rotate(106.97)"><tspan x="0" y="0"> </tspan></text>
  <text class="cls-1" transform="translate(109.84 73.55) rotate(116.29)"><tspan x="0" y="0">E</tspan></text>
  <text class="cls-1" transform="translate(105.13 82.27) rotate(127.78)"><tspan x="0" y="0">U</tspan></text>
  <text class="cls-1" transform="translate(97.88 90.86) rotate(139.36)"><tspan x="0" y="0">P</tspan></text>
  <text class="cls-1" transform="translate(89.88 97.23) rotate(151.05)"><tspan x="0" y="0">H</tspan></text>
  <text class="cls-1" transform="translate(79.71 102.33) rotate(163.3)"><tspan x="0" y="0">R</tspan></text>
  <text class="cls-1" transform="translate(68.98 105.06) rotate(175.11)"><tspan x="0" y="0">A</tspan></text>
  <text class="cls-1" transform="translate(58.89 105.57) rotate(-174.13)"><tspan x="0" y="0">T</tspan></text>
  <text class="cls-1" transform="translate(48.53 104.07) rotate(-163.01)"><tspan x="0" y="0">E</tspan></text>
  <text class="cls-1" transform="translate(39.14 100.79) rotate(-152.01)"><tspan x="0" y="0">S</tspan></text>
  <text class="cls-1" transform="translate(30.37 95.59) rotate(-142.65)"><tspan x="0" y="0"> </tspan></text>
  <text class="cls-1" transform="translate(24.87 91.13) rotate(-133.08)"><tspan x="0" y="0">A</tspan></text>
  <text class="cls-1" transform="translate(17.97 83.18) rotate(-121.39)"><tspan x="0" y="0">G</tspan></text>
  <text class="cls-1" transform="translate(12.58 73.41) rotate(-109.89)"><tspan x="0" y="0">E</tspan></text>
  <text class="cls-1" transform="translate(9.54 63.99) rotate(-98.19)"><tspan x="0" y="0">N</tspan></text>
  <text class="cls-1" transform="translate(8.38 52.51) rotate(-86.37)"><tspan x="0" y="0">C</tspan></text>
  <text class="cls-1" transform="translate(9.47 42.06) rotate(-75.12)"><tspan x="0" y="0">Y</tspan></text>
</svg>